<svg width="30" height="30" viewBox="0 0 30 30" fill="none" xmlns="http://www.w3.org/2000/svg">
<circle cx="15" cy="15" r="14.5" fill="#140000" stroke="#FF4C4C"/>
<g clip-path="url(#clip0_13_4383)">
<path d="M20.2279 8.44689C20.1264 8.36564 19.9842 8.32501 19.842 8.36564L12.5092 9.97033C12.3061 10.011 12.1436 10.1938 12.1436 10.4172V16.6328C11.7779 16.3688 11.3107 16.2063 10.8232 16.2063C9.58418 16.2063 8.58887 17.2016 8.58887 18.4406C8.58887 19.6797 9.58418 20.675 10.8232 20.675C12.0623 20.675 13.0576 19.6797 13.0576 18.4406V13.911L19.4967 12.5094V15.3735C19.1311 15.1094 18.6639 14.9469 18.1764 14.9469C16.9373 14.9469 15.942 15.9422 15.942 17.1813C15.942 18.4203 16.9373 19.4156 18.1764 19.4156C19.4154 19.4156 20.4107 18.4203 20.4107 17.1813V8.81251C20.4107 8.67033 20.3498 8.54845 20.2279 8.44689ZM10.8232 19.7406C10.092 19.7406 9.50293 19.1516 9.50293 18.4203C9.50293 17.6891 10.092 17.1 10.8232 17.1C11.5545 17.1 12.1436 17.6891 12.1436 18.4203C12.1436 19.1516 11.5545 19.7406 10.8232 19.7406ZM13.0576 10.7828L19.4967 9.38126V11.575L13.0576 12.9766V10.7828ZM18.1764 18.4813C17.4451 18.4813 16.8561 17.8922 16.8561 17.161C16.8561 16.4297 17.4451 15.8406 18.1764 15.8406C18.9076 15.8406 19.4967 16.4297 19.4967 17.161C19.4967 17.8922 18.9076 18.4813 18.1764 18.4813Z" fill="#FF4C4C"/>
</g>
<defs>
<clipPath id="clip0_13_4383">
<rect width="13" height="13" fill="white" transform="translate(8 8)"/>
</clipPath>
</defs>
</svg>
