<svg width="27" height="27" viewBox="0 0 27 27" fill="none" xmlns="http://www.w3.org/2000/svg">
<g clip-path="url(#clip0_12_3756)">
<path d="M13.4999 0.759399C6.45459 0.759399 0.759277 6.45471 0.759277 13.5C0.759277 20.5453 6.45459 26.2828 13.4999 26.2828C20.5452 26.2828 26.2827 20.5453 26.2827 13.5C26.2827 6.45471 20.5452 0.759399 13.4999 0.759399ZM13.4999 24.3844C7.50928 24.3844 2.65771 19.4907 2.65771 13.5C2.65771 7.5094 7.50928 2.65784 13.4999 2.65784C19.4905 2.65784 24.3843 7.55159 24.3843 13.5422C24.3843 19.4907 19.4905 24.3844 13.4999 24.3844Z" fill="white"/>
<path d="M13.4998 8.47974C10.7154 8.47974 8.47949 10.7579 8.47949 13.5C8.47949 16.2844 10.7576 18.5204 13.4998 18.5204C16.2842 18.5204 18.5201 16.2422 18.5201 13.5C18.5201 10.7157 16.2842 8.47974 13.4998 8.47974ZM13.4998 16.6219C11.7701 16.6219 10.3779 15.2297 10.3779 13.5C10.3779 11.7704 11.7701 10.3782 13.4998 10.3782C15.2295 10.3782 16.6217 11.7704 16.6217 13.5C16.6217 15.2297 15.2295 16.6219 13.4998 16.6219Z" fill="white"/>
</g>
<defs>
<clipPath id="clip0_12_3756">
<rect width="27" height="27" fill="white"/>
</clipPath>
</defs>
</svg>
