<svg width="119" height="134" viewBox="0 0 119 134" fill="none" xmlns="http://www.w3.org/2000/svg">
<path d="M104.562 120.938H13.9229L21.2834 120.327H104.562V120.938Z" fill="white"/>
<path d="M65.1798 122.865H24.3442V123.476H65.1798V122.865Z" fill="white"/>
<path d="M95.8743 122.865H74.666V123.476H95.8743V122.865Z" fill="white"/>
<path d="M86.6045 120.423C86.6045 120.423 94.0131 105.814 98.7216 106.892C101.625 107.556 99.0475 114.171 99.0475 114.171C99.0475 114.171 102.386 111.724 103.959 113.058C105.706 114.541 102.223 120.423 102.223 120.423H86.6045Z" fill="white"/>
<path d="M57.1436 120.327C57.1436 120.327 60.1615 113.884 63.8444 112.991C67.5274 112.099 65.1825 117.333 65.1825 117.333C65.1825 117.333 66.8116 114.972 68.0375 115.28C69.266 115.588 68.0375 117.794 68.0375 117.794C68.0375 117.794 73.3042 112.011 75.812 112.799C78.3171 113.586 74.3805 120.324 74.3805 120.324H57.1436V120.327Z" fill="white"/>
<path d="M16.3239 108.109C16.201 108.109 16.2785 108.323 16.2678 108.366C16.4601 108.285 16.3079 108.052 16.3239 108.109Z" fill="white"/>
<path d="M18.1828 107.278L18.1641 107.374L18.4124 107.104L18.1828 107.278Z" fill="white"/>
<path d="M19.9934 106.964C19.7557 106.618 19.3497 107.141 19.0025 107.063L18.9358 106.986L18.8423 107.315C19.2269 107.2 19.6996 106.908 19.9934 106.964Z" fill="white"/>
<path d="M21.1044 107.605C21.019 107.468 21.2914 107.441 20.8721 107.599C20.8961 107.61 20.9041 107.621 20.9201 107.629C20.9575 107.621 21.0109 107.61 21.1044 107.605Z" fill="white"/>
<path d="M20.9175 107.629C21.0644 107.731 20.7279 107.674 20.9175 107.629Z" fill="white"/>
<path d="M21.7827 107.385L21.5557 107.562C21.6251 107.64 21.8521 107.618 21.78 107.696C22.023 107.575 21.9536 107.497 21.7827 107.385Z" fill="white"/>
<path d="M21.9698 107.066L21.8496 107.146C21.879 107.176 21.9164 107.184 21.9698 107.066Z" fill="white"/>
<path d="M21.5957 107.313L21.8494 107.144C21.8013 107.09 21.7746 106.97 21.7319 107.208C21.7346 107.095 21.6972 107.211 21.5957 107.313Z" fill="white"/>
<path d="M21.4304 107.283C21.2755 107.227 21.0832 107.208 21.3129 107.031C20.8402 107.173 20.9577 107.425 21.4304 107.283Z" fill="white"/>
<path d="M20.0147 106.559L19.8064 106.482L19.6675 106.637C19.7369 106.559 20.0467 106.675 20.0147 106.559Z" fill="white"/>
<path d="M23.3824 107.286C23.3824 107.203 23.2569 107.087 23.2195 106.991L23.0513 107.117C23.1554 107.154 23.3477 107.171 23.3824 107.286Z" fill="white"/>
<path d="M23.2198 106.991L23.4708 106.801C23.2198 106.83 23.1877 106.905 23.2198 106.991Z" fill="white"/>
<path d="M21.9377 106.64L21.5371 107.012L22.0259 106.618L21.9377 106.64Z" fill="white"/>
<path d="M24.4427 107.095L24.3198 107.31L24.5468 106.975L24.4427 107.095Z" fill="white"/>
<path d="M25.1374 106.927C25.0519 107.104 25.3457 107.154 25.2416 107.272C25.4258 107.208 25.5647 107.045 25.6876 106.897C25.546 106.994 25.3751 107.01 25.1374 106.927Z" fill="white"/>
<path d="M25.9009 106.677C25.8315 106.728 25.7621 106.811 25.6899 106.897C25.7647 106.846 25.8342 106.779 25.9009 106.677Z" fill="white"/>
<path d="M23.9487 106.75C23.9781 106.795 24.0449 106.913 24.2105 106.937L24.0582 106.734C24.0262 106.739 23.9888 106.744 23.9487 106.75Z" fill="white"/>
<path d="M24.0532 106.726L24.0586 106.731C24.1787 106.715 24.2615 106.704 24.2963 106.699C24.2669 106.704 24.1921 106.712 24.0532 106.726Z" fill="white"/>
<path d="M23.9224 106.755C23.933 106.752 23.9411 106.752 23.9491 106.75C23.9357 106.731 23.9277 106.723 23.9224 106.755Z" fill="white"/>
<path d="M22.7017 106.707C22.8405 106.551 23.153 106.353 22.7898 106.222C22.7017 106.399 22.91 106.471 22.7017 106.707Z" fill="white"/>
<path d="M23.7327 106.498L23.4282 106.503C23.4442 106.562 23.5137 106.637 23.4469 106.715L23.7327 106.498Z" fill="white"/>
<path d="M23.8633 106.399L23.7324 106.498H23.8446L23.8633 106.399Z" fill="white"/>
<path d="M25.3564 106.565C25.4632 106.442 25.6021 106.407 25.7543 106.361C25.578 106.35 25.3991 106.361 25.2335 106.393C25.2255 106.468 25.1774 106.608 25.3564 106.565Z" fill="white"/>
<path d="M24.7205 106.624C24.7285 106.616 24.7392 106.613 24.7472 106.605C24.7232 106.592 24.7098 106.586 24.7205 106.624Z" fill="white"/>
<path d="M27.2982 106.056L27.2661 106.021C27.2661 106.034 27.2661 106.048 27.2688 106.061L27.2982 106.056Z" fill="white"/>
<path d="M25.1985 106.356C25.065 106.337 24.9982 106.407 24.9395 106.49C25.0303 106.45 25.1264 106.415 25.2332 106.391C25.2386 106.358 25.2386 106.337 25.1985 106.356Z" fill="white"/>
<path d="M26.3099 106.487C26.2352 106.452 26.1524 106.428 26.0669 106.407C26.147 106.466 26.2992 106.551 26.3099 106.487Z" fill="white"/>
<path d="M24.8007 106.661C24.7954 106.667 24.79 106.672 24.7847 106.675C24.8327 106.715 24.8247 106.691 24.8007 106.661Z" fill="white"/>
<path d="M24.801 106.661C24.8597 106.616 24.8998 106.551 24.9425 106.492C24.8677 106.525 24.8036 106.562 24.7476 106.608C24.7636 106.618 24.7849 106.64 24.801 106.661Z" fill="white"/>
<path d="M27.4744 104.52C27.4931 104.732 27.2019 104.992 26.8708 104.826C26.6197 105.037 26.9402 105.686 27.2634 106.021C27.2527 105.927 27.2367 105.844 27.5037 105.664C27.3782 105.571 26.8093 105.528 27.015 105.289C27.3755 105.104 27.3435 105.3 27.5518 105.372C27.3408 105.144 27.9631 104.895 27.8029 104.531L27.4931 104.732C27.477 104.675 27.5785 104.555 27.4744 104.52Z" fill="white"/>
<path d="M26.7076 106.109L26.5928 106.16C26.737 106.168 26.8492 106.233 27.0628 106.361C27.2418 106.219 27.2658 106.133 27.2658 106.061L26.6729 106.149L26.7076 106.109Z" fill="white"/>
<path d="M26.0589 106.267C26.1069 106.023 26.374 105.868 26.1523 105.659C25.8051 105.745 25.944 105.898 25.7544 106.037C26.3072 105.871 25.6155 106.195 26.0508 106.243C25.9467 106.305 25.8505 106.334 25.7571 106.364C25.8639 106.372 25.9681 106.385 26.0695 106.409C26.0642 106.404 26.0589 106.401 26.0535 106.399H26.0508V106.396C26.0215 106.372 26.0108 106.356 26.0402 106.369C26.0402 106.367 26.0482 106.364 26.0508 106.361C26.0482 106.326 26.0535 106.297 26.0589 106.267C26.2325 106.283 26.0962 106.324 26.0508 106.358C26.0508 106.369 26.0482 106.383 26.0508 106.393L26.0535 106.396L26.5957 106.16C26.4675 106.152 26.3206 106.187 26.0589 106.267Z" fill="white"/>
<path d="M23.0005 105.678C23.0219 105.694 23.0245 105.71 23.0272 105.726C23.0592 105.691 23.0699 105.67 23.0005 105.678Z" fill="white"/>
<path d="M23.2598 105.769C23.225 105.809 23.2064 105.906 23.0701 105.908C22.942 105.863 23.0515 105.798 23.0301 105.726C22.9606 105.801 22.779 105.943 23.0515 106.005L23.0862 105.967C23.3292 106.002 23.6737 106.23 23.6417 106.267C23.5349 106.077 23.4467 105.94 23.2598 105.769Z" fill="white"/>
<path d="M24.6618 105.959L25.1105 105.755L24.8328 105.605L24.8675 105.721C24.5924 105.729 24.6779 105.863 24.6618 105.959Z" fill="white"/>
<path d="M27.3754 106.157L27.3594 106.409L27.565 106.018L27.3754 106.157Z" fill="white"/>
<path d="M27.9814 106.005L28.0001 106.219L28.1363 106.061L27.9814 106.005Z" fill="white"/>
<path d="M61.2085 94.4432L61.318 94.3387C61.2646 94.3789 61.2299 94.411 61.2085 94.4432Z" fill="white"/>
<path d="M60.252 94.7702L60.2626 94.8774C60.2893 94.805 60.292 94.7594 60.252 94.7702Z" fill="white"/>
<path d="M42.9512 102.604C43.1996 102.746 43.496 102.987 43.4159 102.762L43.2984 102.553C43.1675 102.625 43.0527 102.628 42.9512 102.604Z" fill="white"/>
<path d="M52.7153 98.5007C52.6912 98.4846 52.6645 98.4659 52.6378 98.4498C52.6138 98.5409 52.5897 98.624 52.5684 98.7017C52.6111 98.6401 52.6618 98.5731 52.7153 98.5007Z" fill="white"/>
<path d="M52.582 97.5359L52.8812 97.6029C52.809 97.5708 52.7102 97.5466 52.582 97.5359Z" fill="white"/>
<path d="M66.2427 92.2215L66.2988 91.9401C66.0691 92.0419 66.216 92.1062 66.2427 92.2215Z" fill="white"/>
<path d="M34.2231 104.595C34.4154 104.646 34.5623 104.651 34.6852 104.635C34.4502 104.552 34.2365 104.394 34.2231 104.595Z" fill="white"/>
<path d="M61.6596 96.9008C61.7264 96.8311 61.7477 96.7748 61.7264 96.7266C61.6569 96.7962 61.6249 96.8552 61.6596 96.9008Z" fill="white"/>
<path d="M35.1872 104.523C35.1524 104.507 35.1177 104.501 35.083 104.491C34.9655 104.558 34.8453 104.616 34.6851 104.635C34.8613 104.7 35.0536 104.718 35.1872 104.523Z" fill="white"/>
<path d="M81.1372 81.3326C81.1506 81.3246 81.1586 81.3112 81.1746 81.3032C81.1452 81.2951 81.1399 81.3085 81.1372 81.3326Z" fill="white"/>
<path d="M82.0454 75.509C82.0935 75.5546 82.1496 75.6403 82.2056 75.7207C82.1923 75.6725 82.1469 75.6055 82.0454 75.509Z" fill="white"/>
<path d="M30.4627 105.597C30.4493 105.627 30.3372 105.64 30.4627 105.597Z" fill="white"/>
<path d="M29.6479 104.828C29.6693 104.796 29.6853 104.761 29.6773 104.708C29.6773 104.764 29.6666 104.801 29.6479 104.828Z" fill="white"/>
<path d="M36.1565 102.821C36.1592 102.821 36.1645 102.821 36.1672 102.818C36.1191 102.783 36.1271 102.791 36.1565 102.821Z" fill="white"/>
<path d="M30.2466 105.533C30.3 105.552 30.3614 105.563 30.4255 105.565C30.3961 105.554 30.3427 105.544 30.2466 105.533Z" fill="white"/>
<path d="M30.2974 105.638C30.252 105.638 30.2146 105.638 30.1799 105.64C30.1692 105.68 30.1879 105.699 30.2974 105.638Z" fill="white"/>
<path d="M30.6419 105.546C30.5698 105.565 30.4977 105.571 30.4282 105.568C30.4576 105.579 30.471 105.589 30.4656 105.597C30.5003 105.584 30.5537 105.571 30.6419 105.546Z" fill="white"/>
<path d="M74.8291 88.8232C74.8398 88.8259 74.8505 88.8232 74.8638 88.8286C74.9252 88.6758 74.8825 88.7187 74.8291 88.8232Z" fill="white"/>
<path d="M45.6806 99.4066C45.6753 99.4092 45.6726 99.4173 45.6699 99.42C45.6753 99.42 45.6859 99.4226 45.6913 99.4226L45.6806 99.4066Z" fill="white"/>
<path d="M46.0947 99.1171C45.9745 99.4494 45.8543 99.4441 45.6914 99.4226L46.0119 100.031L46.0947 99.1171Z" fill="white"/>
<path d="M63.4492 93.5374L63.0673 93.4596C63.3157 92.996 63.6228 93.004 63.2329 92.8406C63.4492 93.54 62.0684 93.3632 62.2768 94.0573L62.0204 93.9903C62.0818 93.9742 62.0764 93.9313 62.1352 93.9179C61.6198 93.7357 62.023 94.5236 61.4729 94.612C61.2752 94.6254 61.115 94.5692 61.2085 94.4459L60.8693 94.7594C60.7491 94.7862 60.7357 94.6576 60.8559 94.6308L60.2657 94.9015L60.263 94.88C60.2149 95.0194 60.0734 95.2552 60.0013 95.3598C59.8117 95.3142 60.0547 95.2606 59.9853 95.1882L59.7048 95.4723C59.5045 95.341 59.7262 95.0703 59.9692 95.0167C59.4164 94.4378 59.7502 95.2901 58.9277 95.1212L59.2161 94.9256C58.8769 94.604 58.6766 94.8318 58.2333 94.7112C58.3615 94.8104 59.1627 95.0784 58.8529 95.3758C58.7327 95.3598 58.5885 95.3812 58.4336 95.5876C58.3508 95.3437 58.1745 95.467 57.9368 95.5634L57.846 95.2338C57.6163 95.416 57.6911 95.5742 57.5843 95.7725C57.2798 95.8368 57.1383 95.6036 56.9994 95.4134C56.5133 95.5152 57.4561 95.7108 56.9193 95.9547C56.4866 95.9574 56.2569 96.1798 55.8483 96.5256C55.5385 96.4988 55.8323 96.3112 55.7041 96.2468L55.5438 96.5845C55.4824 96.5979 55.4771 96.5122 55.4744 96.4666C55.3008 96.6328 55.5599 96.7989 55.2661 96.9892C55.2901 97.3778 54.4381 96.6703 54.1657 97.2036C54.0375 97.142 54.1524 96.9892 54.0829 96.8713C53.6156 97.3081 53.6716 97.2116 53.3271 97.7101L52.8758 97.611C53.2336 97.7718 52.9586 98.1738 52.7102 98.5088C52.8464 98.5972 52.9639 98.6776 53.036 98.7098L52.5793 99.0367C52.5019 99.0019 52.5206 98.8732 52.5633 98.7098C52.5366 98.7473 52.5125 98.7848 52.4938 98.817C52.2748 98.75 52.3149 98.5329 52.3897 98.3104C52.4698 98.356 52.5526 98.4069 52.6327 98.4578C52.6995 98.222 52.7502 97.9647 52.6674 97.7798C52.6461 97.828 52.5927 97.879 52.5286 97.9192C52.5446 97.8548 52.5526 97.8012 52.5259 97.7718C52.4992 97.7423 52.4671 97.8307 52.4084 97.9379L52.184 97.6056L52.2001 97.7584L51.471 97.7235C51.1051 98.2327 50.846 98.8947 50.1302 99.2645C50.2424 98.9429 50.0475 98.8116 49.9673 98.49C50.2691 98.7714 50.5122 98.1791 50.9208 98.1362C50.7071 98.1604 50.7071 97.9942 50.7445 97.9272L50.1356 98.4337C50.0768 98.1684 49.9326 98.281 49.719 98.222C50.0021 98.699 49.2943 98.7151 49.0539 98.951C48.9872 98.7821 49.0085 98.5865 49.3664 98.5302C48.875 98.2488 49.0406 99.2752 48.5732 99.0501C48.656 99.0233 48.7094 99.0367 48.7201 98.9376C48.5652 99.1466 48.0444 99.1573 48.1192 98.9751L48.202 98.9483C47.6224 99.0421 46.4847 99.4119 46.5167 99.8729C46.4954 99.8166 46.45 99.3208 46.4607 99.2243L45.841 100.974C45.8304 100.572 45.2535 99.7603 45.6674 99.4226C45.5179 99.4039 45.3363 99.3851 45.0879 99.5942C45.1947 99.6236 45.4591 100.082 45.3416 100.149C44.8876 99.8166 45.0425 99.9854 44.5244 99.7362C44.6819 99.7818 44.6846 100.417 44.4603 100.454C44.471 100.358 44.292 99.8729 44.3561 99.7898L43.9635 100.513C44.073 100.374 43.862 100.012 43.6991 99.8782C43.7846 99.9774 43.2291 99.9881 43.0982 100.082L43.3626 100.16C42.727 100.227 42.9647 101.135 42.3451 101.258C42.3878 101.119 42.3424 100.471 42.0139 100.473C41.9471 100.808 41.7415 102.07 41.2554 102.435L41.1085 102.29L40.7399 102.588C40.8895 102.073 41.3836 100.945 41.6854 100.479C41.4236 100.401 41.5705 100.294 41.2314 100.393C41.0711 100.261 41.3595 100.103 41.4584 100.069L40.6331 100.162C40.7533 100.505 40.107 100.663 40.2085 100.948L40.991 100.371C41.1112 100.712 40.7293 101.489 40.1444 101.564C39.9654 101.459 40.1016 100.915 40.0616 100.8C40.0162 100.94 39.5782 101.162 39.5061 101.087L39.701 100.843C39.3538 100.787 39.2951 101.433 38.8357 101.189C38.6995 101.197 38.3363 100.83 38.363 101.044C38.6701 101.392 39.004 102.62 38.9319 102.955C38.8784 102.939 38.1493 102.735 37.9517 102.574C37.6633 102.312 38.1039 101.749 37.8555 101.524C37.8689 101.62 37.7781 101.768 37.738 101.819C37.5805 101.77 37.7273 101.508 37.4362 101.623C37.4683 101.99 36.8193 101.735 37.3641 101.958C37.0944 102.127 37.0356 101.958 36.6938 102.052C36.8567 102.255 36.5629 102.907 36.2905 103.075C36.2878 102.982 36.1943 102.877 36.1489 102.832C35.5373 102.936 35.1768 102.848 34.6133 102.971C34.5412 102.896 34.2474 102.853 34.3302 102.673C34.2634 102.754 34.2153 102.893 34.0444 102.939C33.6411 102.706 34.421 102.805 34.0818 102.491C34.1058 102.703 33.6972 102.877 33.4755 103.062C33.6224 103.365 34.0604 102.998 34.2794 102.813C34.3782 103.255 34.0497 103.812 33.5022 104.147C33.0562 104.359 33.2378 103.906 33.1684 103.987C32.271 104.102 32.5835 104.922 31.7823 104.761C31.4324 104.541 31.6488 104.204 31.5419 104.013C31.9025 103.826 32.1669 104.067 32.4233 104L32.0761 103.936C32.1776 103.815 32.4179 103.689 32.5728 103.74C32.2764 103.542 31.0745 104.013 30.3454 103.922C30.2439 104.043 30.057 104.185 30.1798 104.276L30.3882 104.19C30.6339 104.375 30.049 104.59 30.3428 104.638C30.0864 104.858 29.814 105.177 29.3813 105.134L29.2397 104.828C29.2665 104.919 29.5442 104.965 29.6404 104.842C29.4988 105.018 28.9273 104.536 28.8258 104.994L29.157 105.158C28.9006 105.38 28.6095 105.796 28.2275 105.766C28.4572 106.05 28.3023 105.713 28.6362 106.032C28.3183 105.613 29.5656 105.86 29.1089 105.447C29.4614 105.825 29.603 105.536 30.0249 105.833C29.9929 105.729 29.862 105.656 30.1745 105.646C30.1825 105.611 30.2066 105.565 30.2226 105.538C30.2333 105.541 30.2359 105.541 30.2439 105.541C30.2359 105.538 30.2306 105.536 30.2252 105.533C30.2359 105.514 30.2359 105.512 30.2172 105.53C30.1344 105.498 30.065 105.455 30.0303 105.402C30.1318 105.126 30.6152 105.032 30.7514 104.874C30.941 104.887 30.7006 105.01 30.8235 105.104L31.0265 104.863C31.1013 105.094 31.5873 105.152 31.1921 105.38L31.5766 105.311C31.8304 105.394 32.1509 105.38 32.3191 105.241C32.5114 105.254 32.717 104.882 32.5995 105.102L33.1657 104.826L33.1844 104.882C33.78 104.783 34.3115 104.225 35.0806 104.499C35.2649 104.394 35.4546 104.276 35.8017 104.268L35.9112 104.456C36.1489 104.327 36.7231 104.485 36.7846 104.249C37.1852 104.734 38.0478 104.083 38.5179 104.075L38.4725 103.807C38.785 103.751 39.0627 103.603 39.4179 103.408L39.3405 103.18C39.6236 102.909 40.2245 103.145 40.7399 102.992C40.7266 103.092 40.5877 103.1 40.4835 103.067C41.234 103.445 41.7014 102.365 42.3557 102.609C42.4759 102.489 42.5827 102.494 42.6976 102.526C42.6842 102.529 42.6736 102.537 42.6655 102.548C42.6816 102.548 42.7029 102.542 42.7243 102.537C42.7964 102.561 42.8712 102.593 42.9513 102.612C42.8792 102.569 42.8098 102.537 42.7563 102.529C42.8632 102.497 43.0207 102.427 43.165 102.328L43.2958 102.561C43.3092 102.556 43.3199 102.553 43.3306 102.545C43.5122 102.598 43.4267 102.395 43.2958 102.226C43.3653 102.164 43.4267 102.097 43.4694 102.022C43.6991 102.395 43.8567 101.778 44.1398 102.164C44.1959 101.926 44.9063 101.8 44.8769 101.336C44.8983 101.392 44.9517 101.409 44.8662 101.433C45.0585 101.438 45.2481 101.441 45.3763 101.275L45.5339 101.572L45.8117 101.041C46.0974 101.173 46.2256 101.258 46.0547 101.564C46.5248 101.039 46.4794 101.301 46.8613 100.8L46.8933 101.012C47.0642 100.958 47.2645 100.61 47.4141 100.749C47.9055 101.036 49.3317 100.286 50.4214 100.363C50.0608 99.8166 50.9555 100.503 50.8647 100.026C50.9635 100.152 51.1238 100.192 50.9982 100.361C51.4629 100.077 51.8208 100.369 52.0532 99.8729C52.152 99.9988 52.0051 100.111 52.0826 100.181C52.1146 100.138 52.2054 100.012 52.2829 100.079C52.3576 100.149 52.2428 100.219 52.1814 100.304C52.6888 100.13 52.614 99.6772 52.5286 99.2565C52.8437 99.3744 52.9666 99.3074 53.0734 98.9831C53.2043 99.0903 53.3966 99.1841 53.0921 99.3288C53.2764 99.294 54.2459 99.1975 54.1631 98.8625C54.2432 98.9295 54.4194 98.8116 54.4568 98.758C54.8628 98.6562 54.9082 98.6749 55.2901 98.5195L55.1646 98.5007C55.1966 98.0585 55.4637 98.3104 55.7655 98.1657L55.7682 98.2086C56.5827 98.2622 56.0379 97.9754 56.8552 98.0692L56.7376 97.8361C56.6362 97.2867 57.4694 97.9433 57.8193 97.6056L57.6243 97.5145C57.7899 97.2599 58.4897 98.021 58.7407 98.0103C58.8048 98.0398 58.6873 98.1094 58.6285 98.1657C59.3283 98.2756 58.5992 97.82 59.0185 97.5976C59.1573 97.7423 59.0585 98.0719 59.3683 98.0022C59.566 98.0907 60.044 97.15 60.5621 97.3376C60.4259 97.2358 60.2924 97.1366 60.4633 96.9651C60.7598 96.8096 61.4889 97.1661 61.6251 96.6488C61.6785 96.6703 61.7052 96.6998 61.7186 96.7319C61.9189 96.5363 62.4343 96.2736 62.4931 95.9949C63.0219 96.748 63.8231 95.0382 64.1035 95.8046L64.8193 95.4804L64.83 95.5661C65.3161 95.4321 65.4095 95.1829 65.5003 94.9363C65.6285 94.9444 65.5778 95.0489 65.5858 95.0918C66.3256 94.9712 66.3843 94.9122 66.7956 94.2985L66.9559 94.5182C67.0494 94.3146 68.0963 94.4888 68.6358 93.9152C68.6411 93.9447 68.6491 93.9983 68.6117 94.0573C69.2233 93.4489 70.6949 93.9206 70.5534 92.9156L70.9326 92.468C70.281 92.7039 70.8445 92.0446 70.5187 92.0232C70.735 91.8543 71.2718 91.9803 70.9967 92.1706L70.9299 92.1491C71.0421 92.6583 71.7766 91.9294 71.9128 92.2429C73.1199 91.6078 74.4233 91.2058 75.5476 90.5465L75.2191 90.2892L75.6117 90.0721C75.7586 90.0882 75.9082 90.249 75.6251 90.4044C75.8868 90.5036 75.9883 89.9622 75.9483 89.8845C76.5652 89.6782 75.9856 90.4044 76.1512 90.308L76.3595 90.1391L76.2848 90.1338C76.3782 89.8818 76.3035 89.7344 76.6373 89.5334C76.883 89.4611 76.875 89.6648 76.9658 89.6219C76.9818 89.646 77.0166 89.638 77.0967 89.5468L77.5881 89.244L77.2222 89.1234C77.3424 88.8527 77.6682 88.8286 77.2542 88.6946C77.5667 88.8045 78.0288 88.5311 78.4347 88.2122C78.8433 87.896 79.1959 87.5368 79.3401 87.5208C79.4656 87.1161 79.7247 86.8856 80.0585 86.5988C79.9357 86.6283 79.6499 86.422 79.9437 86.1942C80.355 86.7998 80.6434 85.9235 81.2336 86.028C80.801 86.0226 81.8826 85.1168 81.2256 85.1516C81.466 84.9346 81.4473 85.3044 81.7304 85.2106C81.8613 84.8166 82.1364 84.4897 82.4381 84.1279C82.7319 83.7634 83.0417 83.3507 83.1913 82.8549C83.1085 82.8066 82.9135 82.9058 82.8628 82.6592C83.0658 82.552 83.2821 82.4368 83.4824 82.3055C83.4931 82.0857 83.023 81.9839 83.4183 81.7025C83.3302 81.7373 83.1966 81.7829 83.1966 81.6462C83.421 81.1933 83.5145 80.6814 83.5118 80.1668C83.5118 79.6523 83.4263 79.1377 83.2874 78.6473C83.1512 78.1568 82.9883 77.6798 82.8281 77.2081C82.6732 76.7311 82.5316 76.246 82.4408 75.71C82.4355 76.0343 82.3206 75.8922 82.2031 75.7261C82.2378 75.8601 82.0082 75.852 81.9147 75.9432C81.8719 75.6537 81.8078 75.3723 81.7411 75.0829C81.3752 75.182 81.1856 74.4263 80.8704 74.5924L81.0787 74.7372C80.817 74.7452 80.7315 74.973 80.6381 75.2383C80.5473 75.5036 80.4591 75.7904 80.2455 75.9324C80.5312 75.919 80.5259 76.2058 80.5526 76.4818C80.5686 76.7659 80.614 77.0339 81.02 77.0982C80.9879 77.251 80.8277 77.0956 80.7583 77.2108C81.012 77.2108 81.1402 77.3341 81.1802 77.6423L81.1161 77.6369C81.3244 77.9907 81.3859 78.2828 81.4179 78.5803C81.4339 78.8804 81.4366 79.1913 81.4099 79.6121L81.653 79.5183C81.6503 79.7086 81.5595 79.7541 81.5061 79.8426C81.7037 79.9364 81.701 79.8077 81.7037 79.671C81.6984 79.537 81.693 79.395 81.9174 79.4674C81.7998 79.5504 81.7518 79.671 81.7224 79.8104C81.7037 79.9498 81.6983 80.1132 81.6903 80.2714C81.685 80.4295 81.6583 80.5876 81.6049 80.7082C81.5434 80.8288 81.4526 80.9119 81.3031 80.9253C81.2497 81.196 81.6129 80.8958 81.5488 81.1718L81.3779 81.212L81.5621 81.33C81.4847 81.5095 81.263 81.5444 81.1348 81.5122C81.1615 81.4747 81.1322 81.3836 81.1348 81.3353C80.8998 81.5015 80.9986 81.9785 80.9025 82.0348C80.9719 81.9651 81.028 81.8928 81.0894 81.8177C81.0307 82.2036 80.833 82.603 80.6087 82.9889C80.387 83.3775 80.1493 83.7607 80.0185 84.1842L80.1493 84.2083C79.9143 84.8461 79.73 84.5218 79.3267 85.1061L79.3241 85.0686C79.3107 85.2508 79.2226 85.4357 79.0703 85.5617C79.1024 85.3366 78.6377 85.5992 78.6991 85.3258C78.3546 85.9798 78.5763 85.6957 78.5228 86.3469L78.3092 86.2692C78.3038 86.5104 78.3573 86.5935 78.1062 86.8695C78.2317 86.5479 77.735 86.7811 77.8498 86.3978C77.4198 86.4675 77.2729 86.7275 77.1394 86.9338C77.0112 87.1429 76.8964 87.2983 76.5705 87.1429C76.6106 87.7968 77.2836 86.9982 77.1928 87.2072C77.4359 87.2501 77.2062 87.7137 76.9738 87.8129C76.7655 87.9522 76.226 87.4886 75.7293 87.8397C75.7827 87.8075 75.7613 87.77 75.812 87.7378C75.545 87.7486 75.545 88.1506 75.1818 88.1104C75.2272 88.4748 74.8639 88.2926 75.0509 88.6758L75.4755 88.2846C75.2672 88.5499 75.2726 89.1368 74.6903 89.2145C74.6823 89.118 74.7571 88.9385 74.8185 88.8286C74.6209 88.8045 74.6075 89.0591 74.4019 89.0323C74.223 88.6464 74.9467 88.5954 75.0589 88.1318C74.8265 88.0702 74.6743 88.7375 74.5782 88.2578C74.6743 88.8876 74.028 88.5124 73.8971 89.1073L73.793 88.8742C73.7582 88.9438 73.6995 89.1154 73.59 89.1716L73.614 88.7777C73.4618 89.1904 72.933 88.8902 72.7247 89.177C73.3096 88.8393 73.0078 89.37 73.347 89.3914C72.7754 90.0989 72.6072 89.051 71.8433 89.5978C71.9368 89.5066 72.3348 89.5066 72.2146 89.705C72.033 89.7425 71.7792 89.7693 71.6217 89.6996C71.0955 90.0319 71.8273 89.8872 71.6644 90.1472C71.3332 89.9703 71.4507 90.4018 71.2504 90.6135L71.1329 90.383C70.4225 90.5545 71.205 90.9512 70.5373 91.0584L70.6228 90.6162L70.3637 90.8466L70.297 90.5518C70.0646 90.9083 69.9391 90.9083 69.5812 90.986C69.7335 91.1146 69.7388 91.4309 69.4557 91.5729C69.194 91.5247 69.4637 91.2996 69.0684 91.522C69.0925 91.3317 69.1085 91.1039 69.3863 91.2352C69.3676 91.1495 69.4076 91.045 69.3916 90.9619C69.1085 90.9029 68.8468 91.1709 68.7025 91.2406C68.764 91.2245 68.8361 91.2058 68.8868 91.2218L68.4435 91.8195C68.3099 91.7739 68.3527 91.6694 68.3954 91.5649C68.2859 91.6453 68.2512 91.79 68.0829 91.8892C68.0429 91.6774 67.9441 91.4845 68.1524 91.2808L67.6823 91.7471C67.6075 91.6801 67.2924 91.6453 67.3351 91.5408C66.9746 91.5649 66.7235 92.2483 66.2401 92.2778C66.2348 92.3233 66.2054 92.3796 66.128 92.4439C65.714 92.5645 65.268 92.4707 64.9021 92.9263L64.4961 92.6824C64.157 92.9076 65.033 92.9799 64.4694 93.3551C64.0742 93.6392 64.189 93.1193 63.9967 93.0844C63.8471 93.3444 63.6068 93.8563 63.094 93.7223C63.2088 93.599 63.3344 93.6124 63.4492 93.5374ZM58.8689 95.3705C58.941 95.2874 59.0692 95.0676 59.184 95.1909C59.176 95.5045 59.0505 95.3973 58.8689 95.3705ZM51.8742 98.23C51.9196 98.1282 52.0372 98.1362 52.184 98.1952C52.1013 98.2434 52.0024 98.2622 51.8742 98.23ZM31.841 105.091C31.8437 105.085 31.8464 105.083 31.8491 105.077C32.0814 105.128 31.9986 105.107 31.841 105.091ZM31.3817 105.072C31.3443 105.118 31.355 105.152 31.3817 105.182C31.3977 105.112 31.4965 105.085 31.6114 105.08C31.566 105.024 31.4992 104.989 31.3817 105.072ZM76.9605 89.512L76.8483 89.5066C76.9738 89.3324 76.9658 89.4182 76.9605 89.512Z" fill="white"/>
<path d="M52.5923 97.6485C52.6297 97.6833 52.651 97.7262 52.6724 97.7718C52.6964 97.7208 52.6831 97.6699 52.5923 97.6485Z" fill="white"/>
<path d="M66.2319 92.2751C66.2373 92.2751 66.2426 92.2724 66.248 92.2724C66.2506 92.2536 66.248 92.2376 66.2426 92.2242L66.2319 92.2751Z" fill="white"/>
<path d="M37.6602 101.425C37.759 101.441 37.8177 101.476 37.8631 101.513C37.8525 101.451 37.799 101.411 37.6602 101.425Z" fill="white"/>
<path d="M29.1433 105.991L29.4104 105.868C29.2768 105.908 29.2181 105.863 29.1406 105.836C29.1593 105.895 29.2314 105.967 29.1433 105.991Z" fill="white"/>
<path d="M26.3897 104.917C26.355 104.957 26.3043 104.938 26.2695 104.976L26.3043 105.091C26.4752 105.051 26.5793 104.93 26.3897 104.917Z" fill="white"/>
<path d="M28.7106 105.203C28.6438 104.994 28.4836 105.104 28.2939 105.182C28.3046 105.179 28.3153 105.174 28.3287 105.174C28.334 105.485 28.5236 105.343 28.7106 105.203Z" fill="white"/>
<path d="M28.2514 105.198C28.1927 105.219 28.1313 105.238 28.0698 105.241C28.0725 105.364 28.1499 105.252 28.2514 105.198Z" fill="white"/>
<path d="M30.8529 105.332C30.7487 105.297 30.8502 105.616 30.7808 105.541C30.7354 105.833 31.3363 105.083 30.8529 105.332Z" fill="white"/>
<path d="M28.4092 104.533L28.5347 104.783L28.6015 104.547L28.4092 104.533Z" fill="white"/>
<path d="M30.0007 104.405L29.6722 104.397C29.6856 104.44 29.6509 104.474 29.6055 104.504C29.8004 104.474 30.0221 104.482 30.0007 104.405Z" fill="white"/>
<path d="M29.6053 104.504C29.5039 104.52 29.4077 104.544 29.3623 104.6C29.4157 104.587 29.5306 104.555 29.6053 104.504Z" fill="white"/>
<path d="M28.8228 104.365L28.9269 104.402L29.1513 104.375L28.8228 104.365Z" fill="white"/>
<path d="M33.3792 103.735L33.705 103.585C33.721 103.488 33.6142 103.453 33.4967 103.515C33.4273 103.595 33.3071 103.657 33.3792 103.735Z" fill="white"/>
<path d="M32.1909 103.239C32.2951 103.274 32.3138 103.33 32.3832 103.405L32.3245 103.078L32.1909 103.239Z" fill="white"/>
<path d="M33.1682 102.947C33.1815 102.85 33.6062 102.58 33.1789 102.695C33.1655 102.791 32.8397 102.941 33.1682 102.947Z" fill="white"/>
<path d="M38.3921 102.191L38.3066 102.215L38.4429 102.743L38.3921 102.191Z" fill="white"/>
<path d="M42.5851 99.8246C42.1551 99.7978 42.5718 100.176 42.1712 100.109C42.1071 100.256 42.4997 100.165 42.4302 100.296C42.6359 100.103 42.7828 100.146 42.5851 99.8246Z" fill="white"/>
<path d="M42.4279 100.296C42.3932 100.326 42.3585 100.363 42.3237 100.409C42.3878 100.358 42.4145 100.323 42.4279 100.296Z" fill="white"/>
<path d="M81.626 74.4772C81.594 74.3754 81.5593 74.2762 81.5219 74.177L81.5059 74.4397L81.626 74.4772Z" fill="white"/>
<path d="M80.9582 74.3218L81.1719 74.0377L80.8247 74.1208C80.8781 74.1583 80.9823 74.2306 80.9582 74.3218Z" fill="white"/>
<path d="M57.9502 94.939L57.9582 95.0248C58.025 95.0971 58.0864 95.0837 58.2066 95.0596L57.9502 94.939Z" fill="white"/>
<path d="M61.4062 94.009L61.3447 94.0251L61.5611 94.2797L61.4062 94.009Z" fill="white"/>
<path d="M64.0555 92.5779C63.9379 92.6101 63.8311 92.728 63.7109 92.7602C63.938 92.6101 64.2291 92.929 64.0555 92.5779Z" fill="white"/>
<path d="M9.11812 98.1463C10.5022 96.7574 10.5022 94.5057 9.11813 93.1169C7.73409 91.728 5.49014 91.7281 4.10611 93.1169C2.72208 94.5057 2.72207 96.7575 4.10611 98.1463C5.49014 99.5351 7.73409 99.5351 9.11812 98.1463Z" fill="#FF4C4C"/>
<path d="M90.8104 74.9944C90.3885 75.1767 90.1695 75.651 90.303 76.0932L93.1447 85.4357C92.1538 85.3124 90.976 85.7439 90.0626 86.5077C88.6365 87.7003 87.894 89.7398 89.0985 91.1629C90.3751 92.6717 92.7361 92.1625 94.0634 90.7207C95.0088 89.6942 95.2706 88.0273 94.9634 87.0223C94.9581 87.0008 94.9474 86.9848 94.9421 86.9633H94.9474L92.25 78.0952L101.584 74.0564L103.622 80.7511C102.631 80.6278 101.453 81.0593 100.54 81.8231C99.1138 83.0157 98.3713 85.0552 99.5758 86.4782C100.852 87.9871 103.213 87.4779 104.541 86.036C105.486 85.0096 105.748 83.3426 105.441 82.3376C105.435 82.3162 105.425 82.3001 105.419 82.2787H105.425L102.062 71.229C101.905 70.7118 101.333 70.4465 100.839 70.6609L90.8104 74.9944Z" fill="#FF4C4C"/>
<path d="M30.2091 70.9289C30.4628 70.752 30.5403 70.4116 30.3934 70.1383L27.2686 64.395C27.9363 64.3414 28.6494 63.8992 29.1462 63.2721C29.9207 62.2966 30.1317 60.8574 29.1515 60.0883C28.1099 59.2709 26.6303 59.9275 25.9546 61.0531C25.4739 61.8544 25.5273 62.9827 25.8638 63.6018C25.8718 63.6152 25.8799 63.6259 25.8852 63.6366L25.8825 63.6393L28.8497 69.0904L23.2705 73.0086L21.0298 68.8921C21.6975 68.8385 22.4106 68.3963 22.9073 67.7692C23.6818 66.7936 23.8928 65.3545 22.9127 64.5853C21.8711 63.7679 20.3915 64.4245 19.7158 65.5501C19.2351 66.3514 19.2885 67.4797 19.625 68.0988C19.633 68.1122 19.641 68.1229 19.6464 68.1336L19.6437 68.1363L23.34 74.9274C23.5136 75.2464 23.9222 75.3428 24.2187 75.1338L30.2091 70.9289Z" fill="white"/>
<path d="M46.0889 19.4005C47.3515 19.4005 48.375 18.3734 48.375 17.1064C48.375 15.8395 47.3515 14.8124 46.0889 14.8124C44.8263 14.8124 43.8027 15.8395 43.8027 17.1064C43.8027 18.3734 44.8263 19.4005 46.0889 19.4005Z" fill="#FF4C4C"/>
<path d="M25.7622 45.686L25.5432 45.7476C25.4417 45.7771 25.383 45.8843 25.4097 45.9861L26.737 50.6788C26.2643 50.6091 25.6954 50.8048 25.2494 51.1639C24.555 51.7213 24.1811 52.6915 24.7447 53.3856C25.3429 54.1199 26.478 53.9002 27.127 53.2194C27.589 52.737 27.7305 51.9411 27.5943 51.456C27.5917 51.4453 27.5863 51.4372 27.5836 51.4265H27.5863L25.9999 45.82C25.9705 45.7154 25.8637 45.6565 25.7622 45.686Z" stroke="white" stroke-miterlimit="10"/>
<path d="M80.0581 66.0138H97.028" stroke="white" stroke-miterlimit="10" stroke-linecap="round" stroke-linejoin="round"/>
<path d="M74.7275 66.0138H77.9698" stroke="white" stroke-miterlimit="10" stroke-linecap="round" stroke-linejoin="round"/>
<path d="M74.0679 18.6314H88.586" stroke="white" stroke-miterlimit="10" stroke-linecap="round" stroke-linejoin="round"/>
<path d="M91.935 30.9594L87.1811 26.7062L82.4245 30.9594L76.8667 25.9906L78.4665 24.1897L82.4245 27.7273L87.1811 23.4741L91.935 27.7273L96.6916 23.4741L101.448 27.7273L106.207 23.4741L111.763 28.4428L110.165 30.2438L106.207 26.7035L101.448 30.9594L96.6916 26.7062L91.935 30.9594Z" fill="#FF4C4C"/>
<path d="M32.9782 102.963L27.6421 113.728C27.6421 113.728 32.0114 115.835 34.367 115.535L40.6486 104.914" fill="white"/>
<path d="M36.7816 114.527C36.5679 114.441 36.357 114.366 36.146 114.305C35.975 114.01 35.7908 113.737 35.6385 113.637C35.2459 113.38 32.0918 113.313 31.2051 113.364C30.679 113.393 30.2543 113.806 29.9979 114.133L28.481 112.035C27.8533 112.035 27.1135 112.646 26.347 114.184C25.5485 115.787 24.9155 120.324 24.9155 120.324H39.4123C39.415 120.327 40.4378 116.017 36.7816 114.527Z" fill="#FF4C4C"/>
<path d="M29.998 114.133L29.4238 115.28C29.4238 115.28 31.7767 113.562 36.1434 114.305C36.1434 114.305 35.9431 113.485 35.4143 113.243C34.8855 113.005 31.2212 112.919 30.8634 113.056C30.5081 113.192 29.998 114.133 29.998 114.133Z" fill="white"/>
<path d="M24.7793 120.327C24.7793 120.327 24.7793 119.402 25.0704 119.298H39.5458C39.5458 119.298 40.1307 119.694 39.6633 120.327H24.7793Z" fill="white"/>
<path d="M77.3877 107.514L86.2519 114.835C86.2519 114.835 90.0069 112.941 90.6612 110.649L82.8761 101.765" fill="white"/>
<path d="M92.731 111.413C91.5799 110.336 90.6612 110.649 90.6612 110.649C90.0309 111.66 89.0187 112.506 88.0278 113.158C88.0252 113.158 87.5284 112.892 87.1732 112.892C86.8153 112.892 84.8203 113.123 84.1659 113.546C83.5116 113.97 83.314 114.696 83.314 114.696C81.8291 114.814 79.85 115.227 79.0915 116.553C77.8123 118.786 78.7176 120.324 78.7176 120.324H89.7291L95.5246 115.859C95.5273 115.862 93.8821 112.49 92.731 111.413Z" fill="#FF4C4C"/>
<path d="M83.3169 114.699C83.3169 114.699 83.5546 113.586 84.1502 113.345C85.2879 112.884 86.893 112.753 87.3337 112.815C88.1135 112.922 88.8961 113.862 88.8961 113.862C87.9399 113.747 85.1784 114.613 83.3169 114.699Z" fill="white"/>
<path d="M78.3039 120.327C78.3039 120.327 77.9673 119.402 78.4294 119.298H89.1844L94.9746 114.787C94.9746 114.787 95.6423 115.02 95.5248 115.862L89.7293 120.327H78.3039Z" fill="white"/>
<path d="M48.2363 31.5034C48.2363 31.5034 47.5526 30.9486 46.3267 32.2056C45.0982 33.4625 42.1657 37.93 44.2008 38.7555C46.2386 39.5836 49.9429 33.2776 48.2363 31.5034Z" fill="white"/>
<path d="M97.955 42.604C99.4373 42.8854 99.8726 41.7651 98.8497 41.339C97.8402 40.9182 96.5662 40.7574 96.1897 40.7065C95.2896 40.5859 94.0424 40.6636 94.0424 40.6636C94.0424 40.6636 97.4476 38.4848 97.9123 37.5843C98.3903 36.6597 97.8001 36.4802 97.5704 36.4158C97.3407 36.3488 96.3686 37.0966 95.4232 37.6888C94.4777 38.2784 92.5361 39.3987 92.5361 39.3987C92.5361 39.3987 93.105 36.9706 92.4052 36.4132C91.7776 35.9147 91.3316 36.7642 91.0592 37.6888C90.7868 38.6134 90.087 39.2968 89.7799 40.2724C89.4728 41.2479 88.6715 42.151 88.6715 42.151C86.8955 42.9577 80.0985 46.029 78.3305 46.7553C77.9165 46.9241 74.8638 44.2548 74.8638 44.2548L70.1206 48.6259C70.1206 48.6259 74.2015 52.1126 76.1645 52.8469C77.7696 53.4472 87.5178 47.3583 90.3434 45.5761C90.7814 45.418 93.6338 45.217 94.1145 44.9195C94.9504 46.2702 95.5086 46.8089 96.2751 46.3988C96.4247 46.3184 96.0187 45.1124 95.7356 44.4826C96.2538 44.6622 96.7933 44.8525 97.1271 44.9784C98.4571 45.4742 98.8924 44.5684 98.7562 44.3111C98.62 44.0538 97.1805 43.2257 96.8894 43.0542C96.5983 42.8827 94.6059 42.3279 94.6059 42.3279C94.6059 42.3279 96.4728 42.3199 97.955 42.604Z" fill="#AA5939"/>
<path d="M69.1858 57.0197C69.1858 57.0197 70.7482 58.8287 66.2987 59.7265C61.8493 60.6243 62.2579 56.2103 62.2579 56.2103L66.1946 55.0311L69.1858 57.0197Z" fill="white"/>
<path d="M67.773 62.9773C67.773 62.9773 59.8409 66.338 51.4414 63.1488C52.4456 60.9057 52.4456 54.2512 52.1598 53.4312L65.8821 53.2221C65.8847 53.2194 66.3495 58.9091 67.773 62.9773Z" fill="#AA5939"/>
<path d="M66.6969 58.8769C65.041 58.0408 60.9307 60.3241 57.5122 60.8601C53.7678 61.447 52.0105 60.8601 52.0105 60.8601H52.0078C52.4298 57.9979 52.3764 54.0502 52.16 53.4285L65.885 53.2194C65.885 53.2194 66.104 55.8887 66.6969 58.8769Z" fill="white"/>
<path d="M48.7199 31.8947C48.6425 32.0769 48.7653 32.3932 48.7199 32.6317C47.9214 36.7723 44.7512 37.0322 44.4975 36.85C38.8382 32.8166 34.0896 27.4646 30.7565 21.7241C29.9526 21.7 28.9752 21.1854 28.465 20.4296C27.9416 20.9388 27.768 20.2528 27.768 20.2528C27.768 20.2528 27.5944 20.6306 27.2018 20.6655C26.8573 20.695 26.7211 20.234 26.6917 20.1214C26.689 20.1054 26.6863 20.0973 26.6863 20.0973C26.5688 19.422 26.4753 18.7466 26.4967 18.5697C26.5421 18.2079 27.1217 17.897 27.1217 17.897C27.1217 17.897 27.0869 17.5218 27.1404 17.286C27.2392 16.8679 28.1739 16.6053 28.1739 16.6053C28.1152 16.1711 28.1526 16.0425 28.1819 16.005C28.4277 15.6941 28.9004 15.5333 28.9004 15.5333C28.9004 15.5333 27.1671 12.8774 26.9801 12.2583C26.7932 11.6366 27.0228 11.1729 27.4689 11.2453C27.9149 11.3176 31.0717 15.686 31.0717 15.686C31.0423 15.1152 30.9862 14.8392 30.9595 13.9494C30.8367 12.6791 32.0839 11.5294 32.5139 13.2606C32.7115 14.0539 32.9225 14.7186 33.1335 15.4127C33.9107 17.9694 33.7478 19.3469 33.7478 19.3469C33.7478 19.3469 40.5501 26.5856 43.1621 28.601C44.42 29.3272 46.7729 30.7289 48.7199 31.8947Z" fill="#AA5939"/>
<path d="M69.9872 51.1612C68.6919 49.9472 67.1242 47.964 67.1242 47.964C67.2737 51.464 69.3008 57.1966 69.3008 57.1966C68.4195 56.0844 62.2474 59.086 56.9113 60.2759C53.215 61.1013 50.0875 60.2759 50.0875 60.2759C50.384 52.9112 51.6125 44.362 51.6125 44.362C48.0043 42.4164 43.9902 38.651 43.9902 38.651C46.5061 39.7149 49.4706 33.2106 48.2367 31.5061C53.0013 34.5479 58.8876 36.2497 58.8876 36.2497L68.6919 38.9752C70.2836 39.4121 76.7575 45.6538 76.7575 45.6538C76.2474 48.8028 73.5179 50.2822 69.9872 51.1612Z" fill="#FF4C4C"/>
<path d="M63.4626 25.468L71.0421 31.565C71.0421 31.565 72.7273 36.8982 66.7502 37.3672C60.9307 37.8228 56.3077 28.8341 56.3077 28.8341C56.3077 28.8341 51.9303 28.5849 54.4515 23.4339" fill="white"/>
<path d="M59.8008 24.1709C54.1895 23.7394 53.7756 33.9636 57.7416 34.6604C58.0781 34.7194 58.4066 34.7435 58.7271 34.7408C58.4894 35.4162 58.1876 36.2363 57.8671 37.0483C57.9927 37.2949 59.2506 38.3722 60.172 38.4928C61.5902 38.6831 62.7199 38.2222 62.9976 37.8898C63.3555 33.6822 63.5158 31.9188 63.5158 31.9188C63.8549 31.3962 64.1113 30.8441 64.2742 30.3001C65.2437 27.0171 62.8534 24.4068 59.8008 24.1709Z" fill="#AA5939"/>
<path d="M68.7988 34.6068C75.6867 34.43 74.1964 26.6285 73.6035 25.3448C72.4177 26.1327 68.6519 26.4811 65.7408 23.6992C65.1586 23.1445 63.9568 20.7754 61.4276 20.1429C57.7126 19.2102 55.5306 20.4886 54.497 22.2145C53.4822 23.9056 54.4356 28.14 59.7504 26.9447C59.7263 27.4754 60.1724 28.2097 60.4795 28.4723C61.0938 28.9976 61.9003 29.0137 62.4986 28.8341C62.3837 29.2013 62.373 29.6113 62.5253 29.9651C62.6775 30.3188 63.0114 30.6029 63.3933 30.6404C63.7752 30.678 64.1838 30.4341 64.28 30.0616" fill="white"/>
<path d="M68.7988 34.6068C75.6867 34.43 74.1964 26.6285 73.6035 25.3448C72.4177 26.1327 68.6519 26.4811 65.7408 23.6992C65.1586 23.1445 63.9568 20.7754 61.4276 20.1429C57.7126 19.2102 55.5306 20.4886 54.497 22.2145C53.4822 23.9056 54.4356 28.14 59.7504 26.9447C59.7263 27.4754 60.1724 28.2097 60.4795 28.4723C61.0938 28.9976 61.9003 29.0137 62.4986 28.8341C62.3837 29.2013 62.373 29.6113 62.5253 29.9651C62.6775 30.3188 63.0114 30.6029 63.3933 30.6404C63.7752 30.678 64.1838 30.4341 64.28 30.0616" stroke="white" stroke-miterlimit="10"/>
<path d="M62.4636 29.7882C62.6773 29.4076 63.7216 28.4536 64.4961 29.1289C65.4121 29.9276 64.448 31.817 63.3423 32.093C62.4129 32.3208 61.5663 31.3801 62.4636 29.7882Z" fill="#AA5939"/>
<path d="M72.1448 22.2762C69.8801 23.6456 66.3387 24.0825 63.3955 21.2712Z" fill="white"/>
<path d="M72.1102 22.2145C71.6375 22.4852 71.1487 22.6514 70.6306 22.8068C70.1098 22.9622 69.573 23.0775 69.0308 23.123C67.8317 23.2249 66.6138 23.0239 65.5161 22.5174C64.771 22.1743 64.106 21.7053 63.4704 21.1908C63.3609 21.1023 63.2166 21.239 63.3128 21.3489C65.0915 23.3321 68.0079 24.0476 70.5104 23.182C71.098 22.9783 71.6508 22.6674 72.1743 22.3351C72.2544 22.2869 72.1876 22.1716 72.1102 22.2145Z" fill="white"/>
<path d="M64.0016 29.4157C64.0016 29.4157 63.4381 29.6596 63.374 30.0455C63.3099 30.4314 63.9295 30.4689 63.9295 30.4689C63.9295 30.4689 62.733 30.7584 62.9707 31.6052" stroke="#0F0E13" stroke-width="0.5" stroke-miterlimit="10" stroke-linecap="round" stroke-linejoin="round"/>
<path d="M77.3209 95.1641C76.5624 94.0466 77.0271 92.5511 76.1965 91.4523C75.5475 90.5974 74.9413 91.1227 74.3724 90.7689C73.8276 90.4259 73.9985 89.9998 73.5365 89.5897C72.8955 89.0162 72.3079 89.2654 72.0408 88.9572C71.9073 88.8045 71.8566 88.5606 71.8405 88.3542C71.8405 88.239 71.8432 88.1157 71.8432 87.9817C71.8619 83.3078 71.5735 66.2014 67.538 62.2296C67.538 62.2296 58.2492 64.119 51.8207 61.916C51.8207 61.916 43.9313 79.2958 41.8962 83.742C38.7635 90.5733 30.7139 106.522 30.7139 106.522C33.8173 111.373 42.1019 111.721 47.4193 110.606L52.3816 86.9044L58.0141 75.6591L58.8527 76.1924C59.0263 79.32 59.6219 89.0296 60.4632 92.3528C61.6971 97.217 74.7623 114.83 74.7623 114.83C82.5876 113.554 84.855 108.706 85.8779 104.807L77.3209 95.1641Z" fill="#FF4C4C"/>
<path d="M59.0449 75.3536L56.489 73.8822C56.489 73.8822 50.9819 84.3342 50.5733 85.8216C50.1647 87.309 44.6416 109.789 44.6416 109.789" stroke="white" stroke-miterlimit="10" stroke-linecap="round"/>
<path d="M52.0073 63.4999C52.0073 63.4999 58.3129 65.9039 67.4842 63.449" stroke="white" stroke-miterlimit="10" stroke-linecap="round"/>
<path d="M65.7056 63.8671C65.7056 63.8671 66.6644 65.6546 67.1584 69.9828C67.5484 73.3891 68.4885 87.0196 68.6247 88.8688C68.7609 90.7153 70.8067 89.7586 71.2153 90.785C71.6239 91.8114 71.1459 92.1545 71.7601 92.8379C72.3744 93.5213 73.1249 92.2215 74.0116 93.8643C74.8982 95.5072 83.6262 106.045 83.6262 106.045" stroke="white" stroke-miterlimit="10" stroke-linecap="round"/>
<path d="M58.7298 34.7408C58.7298 34.7408 60.7302 34.6068 62.0816 32.9399C62.0816 32.9399 61.5768 35.6279 58.209 36.1693L58.7298 34.7408Z" fill="white"/>
<path d="M69.6608 50.8423C68.4403 49.6282 67.1236 47.9613 67.1236 47.9613C67.1236 47.9613 67.0755 45.8039 67.3987 45.426C67.7219 45.0508 68.4243 45.4019 68.6086 47.0608C68.8302 49.0601 69.3163 50.4135 69.6608 50.8423Z" fill="white"/>
<path d="M51.6841 43.9815C51.6841 43.9815 52.0046 42.202 52.2102 41.4328" stroke="#0F0E13" stroke-width="0.5" stroke-miterlimit="10" stroke-linecap="round" stroke-linejoin="round"/>
<path d="M95.5083 44.3218C95.5083 44.3218 95.0382 44.086 94.3145 43.7054" stroke="#0F0E13" stroke-width="0.5" stroke-miterlimit="10" stroke-linecap="round" stroke-linejoin="round"/>
<path d="M27.2393 18.4009C27.2393 18.4009 27.6479 20.175 27.8776 20.4672C28.2114 20.8906 28.6975 20.2742 28.8844 19.6926" stroke="#0F0E13" stroke-width="0.5" stroke-miterlimit="10" stroke-linecap="round" stroke-linejoin="round"/>
<path d="M28.2617 17.1708C28.2617 17.1708 28.7718 19.7757 29.0763 20.0839C29.2926 20.3037 29.971 20.033 30.0645 19.288C30.1206 18.8511 30.0484 18.1248 29.784 17.1064" stroke="#0F0E13" stroke-width="0.5" stroke-miterlimit="10" stroke-linecap="round" stroke-linejoin="round"/>
<path d="M51.2676 120.327H54.0959L44.0353 54.9427L42.9136 55.1008L51.2676 120.327Z" fill="white"/>
<path d="M48.5862 39.3531C48.872 39.4496 49.0723 39.6265 49.0322 39.7498L42.1524 60.4394C42.1124 60.5626 41.8453 60.5841 41.5595 60.4876C41.2737 60.3911 41.0734 60.2142 41.1135 60.0936L47.9933 39.404C48.0334 39.2781 48.3004 39.2566 48.5862 39.3531Z" fill="white"/>
<path d="M41.5248 55.2964C41.6744 56.3765 42.6706 57.1296 43.7469 56.9795C44.8232 56.8294 45.5737 55.8298 45.4241 54.7497C45.2746 53.6697 44.2784 52.9166 43.2021 53.0667C42.1258 53.2168 41.3753 54.2164 41.5248 55.2964Z" fill="white"/>
<path d="M53.0756 39.9776C54.3842 38.9243 54.5926 37.0054 53.5403 35.6922C52.488 34.379 50.5784 34.17 49.2698 35.2259C48.3831 35.9415 48.0012 37.0564 48.1774 38.1069L42.9081 42.6817L43.2286 43.0837L42.5342 43.6867L43.3861 44.7506L44.1233 44.1986L44.4438 44.6006L50.0309 40.4251C51.0218 40.8271 52.1889 40.6931 53.0756 39.9776Z" fill="white"/>
<path d="M46.6016 38.8948L44.6333 40.602L47.045 43.6143L49.1335 42.0572L46.6016 38.8948Z" fill="white"/>
</svg>
