<svg width="149" height="172" viewBox="0 0 149 172" fill="none" xmlns="http://www.w3.org/2000/svg">
<path d="M132.531 153.163H14.0146V153.586H132.531V153.163Z" fill="white"/>
<path d="M102.93 156.059H38.2012V156.843H102.93V156.059Z" fill="white"/>
<path d="M126.233 156.059H105.388V156.843H126.233V156.059Z" fill="white"/>
<path d="M25.9085 152.925C25.9085 152.925 10.6046 135.794 15.18 131.105C22.1238 123.984 43.9865 144.236 43.9865 144.236C43.9865 144.236 37.3727 133.087 40.9615 130.541C47.9088 125.618 62.147 146.31 62.147 146.31C62.147 146.31 57.0423 136.437 63.7592 136.393C70.4762 136.348 82.9132 152.925 82.9132 152.925H25.9085Z" stroke="white" stroke-miterlimit="10" stroke-linecap="round" stroke-linejoin="round"/>
<path d="M17.4076 152.925C17.4076 152.925 9.06123 145.474 11.9659 142.843C16.0669 139.127 31.034 152.97 31.034 152.97L17.4076 152.925Z" fill="white"/>
<path d="M50.5008 102.202C50.5386 102.429 50.7861 102.251 50.8445 102.268C50.6864 101.938 50.432 102.233 50.5008 102.202Z" fill="white"/>
<path d="M49.5348 98.4528C49.5692 98.4838 49.6001 98.5113 49.6379 98.5388C49.5795 98.3324 49.5279 98.1191 49.4729 97.899L49.5348 98.4528Z" fill="white"/>
<path d="M50.7997 94.8098C50.5007 94.8649 50.3254 95.1917 50.2394 95.5873C50.1432 95.9829 50.0469 96.4094 49.8785 96.7156L49.7375 96.7913C49.8304 96.9323 49.9266 97.0699 50.0229 97.2041C50.071 97.0046 50.1088 96.7844 50.1466 96.5574C50.181 96.3303 50.2601 96.1067 50.3151 95.8866C50.3804 95.6664 50.4388 95.4531 50.5179 95.2674C50.6038 95.085 50.7001 94.9268 50.7997 94.8098Z" fill="white"/>
<path d="M52.7627 93.5852C52.6459 93.5818 52.6768 93.4682 52.6802 93.4579C52.6871 93.4476 52.6459 93.5336 52.4568 93.9498C52.498 93.9223 52.5152 93.9189 52.5427 93.9051C52.5874 93.8329 52.6321 93.7331 52.7627 93.5852Z" fill="white"/>
<path d="M52.5427 93.9017C52.8143 93.7675 52.3433 94.2457 52.5427 93.9017Z" fill="white"/>
<path d="M53.5431 92.3124C53.4743 92.4878 53.4056 92.6633 53.354 92.8422C53.5018 92.8146 53.8215 92.4569 53.7768 92.6461C54.0415 92.1645 53.8868 92.1817 53.5431 92.3124Z" fill="white"/>
<path d="M53.5842 91.6863L53.4639 91.9546C53.5326 91.9443 53.5911 91.8962 53.5842 91.6863Z" fill="white"/>
<path d="M53.2095 92.5188C53.2885 92.3296 53.3779 92.1438 53.4639 91.9546C53.3504 91.9684 53.2198 91.8755 53.3332 92.2058C53.2507 92.0785 53.2817 92.2539 53.2095 92.5188Z" fill="white"/>
<path d="M52.9552 92.7458C52.694 92.9282 52.4052 93.2171 52.5874 92.6702C52.0305 93.5646 52.4121 93.6265 52.9552 92.7458Z" fill="white"/>
<path d="M50.4458 94.3936L50.1193 94.7032L50.0952 95.1022C50.109 94.9027 50.5937 94.4418 50.4458 94.3936Z" fill="white"/>
<path d="M55.9766 89.9147C55.9251 89.8184 55.6466 89.8562 55.5229 89.7943L55.3235 90.1727C55.5229 90.0695 55.8494 89.8287 55.9766 89.9147Z" fill="white"/>
<path d="M55.523 89.7943L55.8221 89.2233C55.4233 89.6086 55.4165 89.7393 55.523 89.7943Z" fill="white"/>
<path d="M53.2233 91.2666C53.1099 91.6106 52.993 91.9512 52.8899 92.2918C53.0308 91.8996 53.189 91.5074 53.3436 91.1118L53.2233 91.2666Z" fill="white"/>
<path d="M57.6577 88.2807L57.5718 88.7004C57.6371 88.4699 57.7024 88.236 57.778 88.009L57.6577 88.2807Z" fill="white"/>
<path d="M58.7954 87.1937C58.737 87.517 59.2835 87.2109 59.1598 87.4861C59.4589 87.1799 59.6239 86.8153 59.7751 86.4816C59.5654 86.7774 59.2629 86.9976 58.7954 87.1937Z" fill="white"/>
<path d="M60.0536 85.9518C59.9505 86.1032 59.868 86.2855 59.7751 86.485C59.8886 86.3268 59.9848 86.1582 60.0536 85.9518Z" fill="white"/>
<path d="M56.6125 88.5181C56.6916 88.5284 56.8738 88.5834 57.1694 88.3942L56.7913 88.3495C56.7363 88.4011 56.6744 88.4596 56.6125 88.5181Z" fill="white"/>
<path d="M56.781 88.3495H56.7948C56.9907 88.1706 57.1282 88.0468 57.1866 87.9952C57.1351 88.0399 57.0113 88.1466 56.781 88.3495Z" fill="white"/>
<path d="M56.5679 88.5594C56.5851 88.5456 56.5954 88.5318 56.6126 88.5181C56.5748 88.5146 56.5576 88.5146 56.5679 88.5594Z" fill="white"/>
<path d="M54.4884 90.2037C54.5984 89.815 55.0178 89.1442 54.3131 89.5122C54.2821 89.8459 54.6671 89.6258 54.4884 90.2037Z" fill="white"/>
<path d="M56.0901 88.5078C55.9114 88.6454 55.7395 88.7864 55.571 88.9309C55.6364 88.9756 55.7979 88.9687 55.7326 89.1579C55.846 88.9378 55.9629 88.721 56.0901 88.5078Z" fill="white"/>
<path d="M56.262 88.2154L56.0901 88.5078L56.286 88.3564L56.262 88.2154Z" fill="white"/>
<path d="M59.0052 86.4816C59.1427 86.1961 59.373 85.9828 59.6342 85.7386C59.3077 85.9415 58.9845 86.1754 58.6992 86.4197C58.7198 86.5229 58.7027 86.7534 59.0052 86.4816Z" fill="white"/>
<path d="M57.8949 87.3588C57.9052 87.3416 57.919 87.321 57.9327 87.3038C57.8846 87.3106 57.8571 87.3244 57.8949 87.3588Z" fill="white"/>
<path d="M62.3911 83.5335C62.3636 83.5301 62.3395 83.5301 62.312 83.5266C62.3189 83.5438 62.3258 83.5576 62.3326 83.5748L62.3911 83.5335Z" fill="white"/>
<path d="M58.6133 86.4197C58.3555 86.5607 58.2799 86.7362 58.218 86.9116C58.3555 86.7465 58.5136 86.5779 58.6993 86.4197C58.689 86.3715 58.6752 86.3474 58.6133 86.4197Z" fill="white"/>
<path d="M60.724 85.226C60.5693 85.2742 60.4043 85.3395 60.2358 85.4152C60.4077 85.3946 60.7308 85.3189 60.724 85.226Z" fill="white"/>
<path d="M58.0565 87.2969C58.0497 87.3106 58.0428 87.321 58.0325 87.3347C58.1459 87.321 58.115 87.3072 58.0565 87.2969Z" fill="white"/>
<path d="M58.0564 87.2969C58.1354 87.1662 58.1733 87.0354 58.218 86.9082C58.1045 87.0423 58.0048 87.173 57.9292 87.3003C57.9704 87.2934 58.0186 87.2934 58.0564 87.2969Z" fill="white"/>
<path d="M62.1092 81.3732C62.2261 81.6209 61.7654 82.2848 61.0607 82.4671C60.6654 83.0313 61.5592 83.4716 62.312 83.5232C62.257 83.4166 62.1883 83.3306 62.6179 82.7939C62.3429 82.818 61.2326 83.4269 61.5282 82.8868C62.147 82.2298 62.1608 82.5118 62.5973 82.3708C62.0954 82.3192 63.2092 81.2975 62.7589 81.012L62.2329 81.6209C62.1745 81.5693 62.3292 81.301 62.1092 81.3732Z" fill="white"/>
<path d="M61.2946 84.28L61.1021 84.4795C61.3702 84.3178 61.6177 84.2697 62.0749 84.1871C62.3533 83.8053 62.3671 83.6642 62.3361 83.5748L61.2499 84.3729L61.2946 84.28Z" fill="white"/>
<path d="M60.1499 85.2501C60.1258 84.8889 60.5624 84.3729 60.0433 84.3798C59.428 84.9061 59.7545 84.9233 59.4727 85.3326C60.4283 84.452 59.287 85.6904 60.1189 85.2294C59.9505 85.4255 59.7855 85.5838 59.6342 85.7351C59.8336 85.6113 60.033 85.5012 60.2324 85.4118C60.2186 85.4152 60.2083 85.4152 60.198 85.4152L60.1945 85.4186L60.1911 85.4152C60.1258 85.4221 60.0949 85.4152 60.1567 85.3946C60.1567 85.3877 60.1705 85.3774 60.1739 85.3739C60.1567 85.3395 60.1533 85.2948 60.1499 85.2501C60.4799 85.0643 60.2461 85.2742 60.1774 85.3739C60.1842 85.3877 60.1842 85.4049 60.1945 85.4186H60.2014L61.1055 84.4795C60.8649 84.6171 60.6002 84.8407 60.1499 85.2501Z" fill="white"/>
<path d="M54.3301 88.5697C54.3782 88.5594 54.392 88.5731 54.4091 88.5869C54.4435 88.5009 54.447 88.4596 54.3301 88.5697Z" fill="white"/>
<path d="M54.8355 88.3048C54.7977 88.4011 54.8286 88.5422 54.5914 88.7451C54.3405 88.8758 54.4883 88.6454 54.4092 88.5869C54.3336 88.7761 54.1102 89.2026 54.6189 88.8827L54.6533 88.7898C55.0899 88.4768 55.8221 88.2635 55.7911 88.3598C55.4921 88.2773 55.2618 88.236 54.8355 88.3048Z" fill="white"/>
<path d="M57.4377 86.6226C57.6749 86.3474 57.9052 86.0619 58.1527 85.7936C57.9568 85.8486 57.7574 85.9037 57.5649 85.9656L57.6886 86.0619C57.1902 86.43 57.4171 86.4816 57.4377 86.6226Z" fill="white"/>
<path d="M62.5769 83.5748L62.656 83.9085L62.8794 83.1758L62.5769 83.5748Z" fill="white"/>
<path d="M63.6768 82.6976L63.7971 82.9453L63.9964 82.5944L63.6768 82.6976Z" fill="white"/>
<path d="M123.713 32.2534L123.682 31.9679C123.686 32.0986 123.696 32.1846 123.713 32.2534Z" fill="white"/>
<path d="M123.136 34.2142L123.242 34.3106C123.208 34.1902 123.17 34.1351 123.136 34.2142Z" fill="white"/>
<path d="M93.1262 63.9049C93.6625 63.8739 94.3156 63.9358 94.1094 63.7054L93.8309 63.5265C93.5765 63.7432 93.3428 63.8464 93.1262 63.9049Z" fill="white"/>
<path d="M112.167 49.0234C112.112 49.0269 112.057 49.0303 112.002 49.0372C111.974 49.1886 111.947 49.3296 111.926 49.4569C111.998 49.3262 112.081 49.1782 112.167 49.0234Z" fill="white"/>
<path d="M111.665 47.8504L112.263 47.6165C112.112 47.6509 111.919 47.7231 111.665 47.8504Z" fill="white"/>
<path d="M119.588 22.6352L119.141 22.6524C119.526 22.9826 119.458 22.7212 119.588 22.6352Z" fill="white"/>
<path d="M75.6359 74.4898C76.0415 74.3728 76.3406 74.2455 76.5847 74.1079C76.0828 74.2214 75.6118 74.2146 75.6359 74.4898Z" fill="white"/>
<path d="M126.597 33.8393C126.604 33.6122 126.57 33.509 126.501 33.4987C126.494 33.7258 126.515 33.8668 126.597 33.8393Z" fill="white"/>
<path d="M77.5781 73.4887C77.5025 73.5025 77.4338 73.5266 77.3581 73.5403C77.1313 73.7364 76.901 73.9325 76.5881 74.1079C76.9594 74.0254 77.3478 73.874 77.5781 73.4887Z" fill="white"/>
<path d="M76.3441 19.3947C76.3097 19.3878 76.2684 19.3878 76.2341 19.381C76.2306 19.4222 76.2787 19.4154 76.3441 19.3947Z" fill="white"/>
<path d="M62.5286 19.6011C62.6523 19.5461 62.862 19.4876 63.0614 19.4291C62.9617 19.4394 62.7967 19.4842 62.5286 19.6011Z" fill="white"/>
<path d="M68.376 79.5122C68.3554 79.5672 68.1388 79.6979 68.376 79.5122Z" fill="white"/>
<path d="M66.5059 79.3711C66.5402 79.3058 66.554 79.2438 66.523 79.1819C66.5402 79.2576 66.5334 79.3195 66.5059 79.3711Z" fill="white"/>
<path d="M79.1662 70.3239C79.1731 70.3205 79.18 70.317 79.1903 70.3102C79.0837 70.3102 79.1009 70.3102 79.1662 70.3239Z" fill="white"/>
<path d="M67.9255 79.6532C68.039 79.6188 68.1627 79.5741 68.2934 79.5122C68.2315 79.5294 68.118 79.5706 67.9255 79.6532Z" fill="white"/>
<path d="M68.0563 79.7358C67.9634 79.7839 67.8913 79.8218 67.8225 79.8596C67.8225 79.925 67.8672 79.9284 68.0563 79.7358Z" fill="white"/>
<path d="M68.7128 79.2645C68.5719 79.3642 68.4344 79.4434 68.2935 79.5122C68.3553 79.495 68.3828 79.495 68.376 79.5122C68.4481 79.4606 68.5478 79.3883 68.7128 79.2645Z" fill="white"/>
<path d="M100.637 16.0854C100.617 16.0751 100.596 16.0682 100.575 16.0545C100.269 16.168 100.403 16.1508 100.637 16.0854Z" fill="white"/>
<path d="M98.193 57.104C98.1827 57.1143 98.1792 57.1246 98.1724 57.135C98.1861 57.1315 98.2033 57.1246 98.2171 57.1212L98.193 57.104Z" fill="white"/>
<path d="M98.9871 56.3334C98.798 56.8942 98.5505 56.9974 98.2136 57.1178L98.9768 57.651L98.9871 56.3334Z" fill="white"/>
<path d="M123.29 27.5957L123.218 28.2837C122.888 27.9844 122.754 27.7058 122.624 27.5888C122.496 27.4684 122.459 27.5028 122.386 27.8262C122.61 27.7642 122.771 27.8743 122.902 28.0738C123.022 28.2734 123.16 28.552 123.201 28.841C123.256 29.1299 123.342 29.4154 123.428 29.6356C123.507 29.8558 123.638 30.0106 123.871 30.0209L123.703 30.4474C123.703 30.327 123.648 30.3098 123.648 30.1929C123.466 30.5988 123.593 30.7398 123.796 30.9325C123.895 31.0288 124.002 31.1354 124.074 31.2902C124.109 31.3659 124.136 31.4554 124.15 31.5586C124.157 31.6618 124.133 31.7787 124.095 31.9163C123.957 32.2913 123.782 32.5252 123.717 32.25C123.727 32.3945 123.754 32.5424 123.754 32.6903L123.751 33.1375C123.665 33.3783 123.528 33.2717 123.61 33.0378L123.473 33.6845L123.27 34.3243L123.249 34.3037C123.321 34.5342 123.376 35.0364 123.356 35.2772C123.081 35.5421 123.342 35.0742 123.198 35.1086L123.067 35.9033C122.716 36.0753 122.778 35.3976 123.036 34.9435C122.459 35.0708 122.448 35.2256 122.434 35.5042C122.434 35.7829 122.379 36.1785 121.764 36.7048L122.015 36.0271C121.668 36.0959 121.475 36.2679 121.279 36.4881C121.09 36.7082 120.853 36.9662 120.506 37.207C120.63 37.1795 121.022 36.9628 121.359 36.8458C121.685 36.7254 121.953 36.7048 121.84 37.1245C121.647 37.2862 121.448 37.5235 121.352 38.0086C121.214 37.9157 121.101 37.9742 120.987 38.1118C120.864 38.2459 120.733 38.4626 120.571 38.6897L120.241 38.3973C119.984 38.9477 120.197 39.0543 120.128 39.4534C119.657 39.9522 119.306 39.8386 118.987 39.7733C118.244 40.5542 119.884 39.5566 119.117 40.592C118.746 40.8741 118.488 41.1596 118.254 41.5036C118.021 41.8476 117.783 42.226 117.491 42.7145C116.931 43.0688 117.381 42.4427 117.13 42.5184C117.079 42.7351 117.031 42.9553 116.969 43.172C116.862 43.2614 116.818 43.1548 116.797 43.0998C116.539 43.5298 117.075 43.4438 116.598 44.0561C116.683 44.3003 116.288 44.4551 115.807 44.6512C115.329 44.8507 114.793 45.1156 114.618 45.635C114.356 45.6901 114.528 45.3564 114.363 45.2738C113.6 46.385 113.686 46.1992 113.163 47.2553L112.266 47.6062C112.998 47.4376 112.576 48.2907 112.17 49.0131C112.462 48.9925 112.706 48.9718 112.858 48.9374C112.593 49.2574 112.311 49.5635 112.039 49.8766C111.878 49.911 111.885 49.7149 111.929 49.4466C111.885 49.5257 111.843 49.6014 111.816 49.6667C111.372 49.8043 111.397 49.4638 111.493 49.0785C111.661 49.0578 111.837 49.0406 112.005 49.0269C112.081 48.6347 112.115 48.2288 111.905 48.0637C111.878 48.1531 111.785 48.2804 111.668 48.4008C111.685 48.2976 111.685 48.215 111.63 48.2013C111.568 48.191 111.531 48.3423 111.441 48.5522L110.922 48.332L110.987 48.5281C110.506 48.7654 110.035 49.0097 109.551 49.2367C108.946 50.3066 108.574 51.4796 107.213 52.6905C107.375 52.1401 106.955 52.1538 106.728 51.7926C107.388 51.8752 107.749 50.826 108.557 50.3582C108.138 50.6058 108.103 50.3754 108.162 50.2481L107.055 51.5484C106.883 51.2422 106.618 51.5415 106.178 51.6688C106.842 52.0438 105.426 52.7558 104.986 53.3097C104.821 53.1411 104.824 52.859 105.532 52.4325C104.494 52.5254 105.016 53.7638 104.03 53.9048C104.195 53.7878 104.305 53.7569 104.305 53.6124C104.03 54.0493 102.981 54.5584 103.095 54.2385L103.26 54.125C102.101 54.8026 99.8499 56.3575 99.9943 56.9595C99.9427 56.9045 99.7605 56.2715 99.7639 56.127L98.8014 59.0786C98.7121 58.5419 97.3886 57.964 98.1758 57.1281C97.8664 57.2382 97.4917 57.3826 97.0139 57.8883C97.2373 57.8333 97.863 58.2151 97.6327 58.4112C96.6426 58.3734 96.9898 58.4594 95.8864 58.5901C96.2198 58.5075 96.3298 59.371 95.8795 59.6221C95.8864 59.481 95.4326 58.9857 95.5495 58.8137L94.8654 60.1484C95.0648 59.8594 94.5698 59.5602 94.2089 59.5258C94.4014 59.5842 93.2567 60.1002 93.0023 60.3445L93.5626 60.2103C92.2632 60.8708 92.9095 61.889 91.6548 62.608C91.7201 62.381 91.5104 61.545 90.8332 61.8409C90.7541 62.3534 90.5513 64.2454 89.6163 65.1674L89.2898 65.102L88.5851 65.8313C88.7982 65.0057 89.6163 63.0449 90.1595 62.1402C89.6026 62.2709 89.8913 61.9922 89.2073 62.4326C88.8498 62.4016 89.4204 61.9269 89.6163 61.7927L87.9251 62.6596C88.2379 63.0105 86.9247 63.8086 87.186 64.101L88.7019 62.6218C89.0113 62.9726 88.3651 64.3624 87.1688 64.9885C86.7804 65.0091 86.9625 64.1526 86.8594 64.0356C86.7941 64.2626 85.9244 64.9575 85.7594 64.9231L86.1204 64.4174C85.3882 64.6548 85.3916 65.5733 84.3913 65.6627C84.1094 65.7969 83.2878 65.6318 83.3841 65.8966C84.0922 66.0858 85.0203 67.4309 84.9344 67.9469C84.821 67.971 83.2775 68.3597 82.8409 68.3218C82.1878 68.2324 82.9853 67.08 82.4319 67.0009C82.48 67.1178 82.3184 67.3999 82.2462 67.5031C81.9094 67.5788 82.1603 67.0972 81.5828 67.5134C81.7237 67.9744 80.3281 68.2324 81.5003 68.026C80.9778 68.5007 80.8197 68.3287 80.1356 68.769C80.5137 68.8929 80.0462 70.0315 79.5272 70.5062C79.4997 70.3824 79.2865 70.3308 79.1834 70.3102C77.9493 71.0154 77.1896 71.239 76.0587 71.9338C75.8937 71.9029 75.2784 72.1265 75.4056 71.81C75.2887 71.982 75.2234 72.209 74.883 72.4361C73.9962 72.5152 75.6221 71.896 74.8521 71.8066C74.9518 72.0646 74.1509 72.6872 73.7521 73.1447C74.1268 73.4027 74.9346 72.4946 75.3402 72.0405C75.6496 72.5324 75.1099 73.5816 74.089 74.5517C73.2399 75.2638 73.4874 74.4898 73.3705 74.6618C71.5761 75.6903 72.4424 76.4643 70.7821 77.0457C70.0121 77.111 70.3524 76.4471 70.0808 76.3095C70.7511 75.6938 71.363 75.7557 71.8615 75.4117L71.1396 75.6731C71.3114 75.4151 71.7652 75.0092 72.0952 74.9232C71.4352 74.9542 69.1286 76.767 67.6402 77.4206C67.4752 77.6821 67.1417 78.0639 67.4167 78.057L67.8052 77.7302C68.3552 77.7165 67.2517 78.604 67.8567 78.3598C67.4133 78.9102 66.9836 79.6154 66.1105 80.0178L65.722 79.7736C65.8114 79.863 66.3751 79.6257 66.5195 79.3677C66.303 79.7461 64.9933 79.7323 64.9658 80.441L65.6739 80.293C65.2476 80.8641 64.8317 81.7034 64.0823 82.0922C64.6323 82.2022 64.2061 81.9374 64.9761 81.9855C64.2026 81.7929 66.7223 80.7609 65.6842 80.723C66.5058 80.8297 66.688 80.3137 67.6161 80.2518C67.5164 80.152 67.2345 80.1933 67.8464 79.8493C67.8498 79.7977 67.8808 79.7117 67.9048 79.6601C67.9255 79.6532 67.9324 79.6498 67.9495 79.6429C67.9358 79.6463 67.922 79.6498 67.9083 79.6498C67.922 79.6154 67.922 79.6119 67.8945 79.6532C67.7227 79.6979 67.5714 79.7151 67.482 79.6842C67.5852 79.2198 68.5236 78.604 68.7436 78.2497C69.1286 78.0708 68.6886 78.4802 68.9602 78.4767L69.2902 77.9538C69.5102 78.1809 70.5002 77.7681 69.7817 78.463L70.5277 77.9848C71.0571 77.8438 71.6896 77.5032 71.9921 77.1558C72.3805 76.9838 72.6933 76.2958 72.518 76.6948L73.5837 75.7798L73.6352 75.8382C74.8109 75.133 75.7527 73.8878 77.3821 73.53C77.7362 73.2204 78.0937 72.8867 78.7984 72.553L79.0665 72.701C79.5237 72.3088 80.7303 71.9923 80.8025 71.6208C81.7237 71.8994 83.3497 70.2482 84.3156 69.8148L84.1678 69.4949C84.7969 69.1371 85.3366 68.6934 86.031 68.1086L85.8247 67.8746C86.3541 67.2589 87.6397 67.0318 88.671 66.3714C88.6607 66.5158 88.3788 66.65 88.1554 66.7016C89.7676 66.5399 90.5341 64.6686 91.9298 64.4106C92.1532 64.1422 92.3801 64.0494 92.6173 63.9943C92.5898 64.0115 92.5692 64.0287 92.5554 64.0494C92.5864 64.0356 92.631 64.0081 92.6723 63.9806C92.8235 63.9496 92.9851 63.9255 93.1501 63.8808C92.992 63.8877 92.8476 63.9049 92.7342 63.9427C92.9473 63.8051 93.2601 63.5712 93.542 63.3063L93.8514 63.5058C93.8754 63.4852 93.8961 63.4749 93.9201 63.4508C94.3017 63.3614 94.092 63.1618 93.7929 63.0518C93.927 62.9038 94.0439 62.7594 94.1161 62.6183C94.6523 62.9142 94.8689 61.9441 95.522 62.2124C95.5942 61.8409 97.038 61.029 96.897 60.4236C96.9486 60.4821 97.062 60.4511 96.8901 60.5646C97.2855 60.3961 97.6773 60.2275 97.9111 59.887L98.2858 60.1484L98.767 59.1749C99.3789 59.0889 99.6539 59.0889 99.3583 59.6634C100.228 58.5178 100.183 58.9203 100.878 57.8814L100.977 58.1394C101.318 57.909 101.668 57.245 101.998 57.3001C103.054 57.2347 105.831 54.8749 108.031 53.8979C107.196 53.5092 109.138 53.5574 108.853 52.9932C109.076 53.0689 109.406 52.9622 109.19 53.32C110.066 52.4703 110.84 52.491 111.201 51.5725C111.427 51.6413 111.159 51.9509 111.324 51.9681C111.379 51.8786 111.534 51.6069 111.706 51.6206C111.874 51.6378 111.658 51.8546 111.555 52.0334C112.534 51.2663 112.27 50.7125 112.008 50.2274C112.662 50.052 112.892 49.8353 113.019 49.2711C113.298 49.2746 113.7 49.1954 113.143 49.7252C113.497 49.481 115.37 48.2701 115.113 47.8917C115.288 47.8882 115.597 47.527 115.649 47.4135C116.405 46.8081 116.488 46.7634 117.175 46.1029L116.931 46.2267C116.859 45.5869 117.44 45.611 117.952 45.033L117.973 45.0881C118.749 44.6237 118.849 44.4482 118.952 44.2866C119.059 44.1249 119.162 43.9735 119.932 43.4988L119.626 43.3371C119.43 43.0378 119.764 42.828 120.21 42.57C120.661 42.3189 121.228 42.0093 121.444 41.5242L121.066 41.6859C121.152 41.3935 121.582 41.2559 122.053 41.1286C122.527 41.0117 123.012 40.8741 123.229 40.6711C123.352 40.6058 123.187 40.8913 123.119 41.0598C124.366 40.0898 122.899 40.647 123.476 39.6838C123.782 39.6426 123.809 40.2514 124.274 39.6322C124.366 39.5772 124.452 39.4086 124.542 39.1713C124.586 39.0543 124.631 38.9202 124.679 38.7791C124.72 38.6312 124.765 38.4764 124.81 38.3147C124.903 37.9948 125.013 37.6611 125.154 37.3687C125.288 37.066 125.439 36.7874 125.655 36.5982C125.391 36.7358 125.133 36.8596 125.24 36.3264C125.308 36.1338 125.453 35.9446 125.594 35.721C125.735 35.5008 125.896 35.2669 126.044 35.0295C126.357 34.5617 126.515 34.0147 126.35 33.5882C126.425 33.4987 126.48 33.4712 126.525 33.4781C126.532 33.3955 126.535 33.3026 126.542 33.2029C126.546 33.0997 126.546 32.9862 126.549 32.8692C126.553 32.6353 126.556 32.3807 126.56 32.133C126.57 31.8888 126.535 31.648 126.491 31.4485C126.45 31.2455 126.395 31.0838 126.322 30.9875C126.611 30.8568 126.759 30.5334 126.738 30.1241C126.735 29.9211 126.711 29.6975 126.67 29.4739C126.649 29.3604 126.628 29.2469 126.601 29.1334C126.563 29.0198 126.525 28.9098 126.487 28.7997C126.412 28.5795 126.336 28.3662 126.267 28.1667C126.205 27.9672 126.15 27.7883 126.102 27.637C126.016 27.3308 126.044 27.1072 126.295 27.0315C126.109 26.3882 125.796 25.8069 125.525 25.2083H125.642C125.401 24.6235 125.14 24.2898 124.916 24.049C124.672 23.822 124.445 23.7085 124.225 23.6018C124.133 23.3266 124.325 23.4436 124.384 23.4333C124.191 23.0205 123.992 22.7315 123.834 22.4838C123.672 22.2362 123.521 22.047 123.345 21.8956C123.005 21.5826 122.624 21.3486 121.909 21.0322L122.032 20.6778C121.929 20.64 121.781 20.4886 121.582 20.2788C121.383 20.0724 121.159 19.7662 120.86 19.4876C120.564 19.2021 120.241 18.8787 119.856 18.6276C119.667 18.4969 119.471 18.373 119.272 18.263C119.069 18.1598 118.856 18.0772 118.643 18.0084C118.677 17.9843 118.743 17.943 118.887 17.974C117.948 17.6266 117.01 16.9317 116.123 16.3985C115.676 16.1508 115.253 15.9375 114.872 15.855C114.49 15.7827 114.153 15.824 113.892 16.0614C113.463 16.0166 113.029 16.0098 112.607 15.9857C114.119 16.5361 112.225 16.4329 112.796 16.8216C112.191 16.7046 111.345 16.0373 112.105 16.1646L112.204 16.254C112.428 15.9788 111.96 15.7965 111.455 15.6348C110.95 15.4662 110.4 15.3562 110.468 15.1429C107.361 14.4996 104.322 13.8529 101.359 13.7256L101.679 14.2382L100.654 14.1762C100.39 14.049 100.3 13.7703 101.036 13.815C100.654 13.5123 99.7983 14.0283 99.7811 14.1384C98.3511 13.9182 100.348 13.557 99.9083 13.5398L99.3067 13.5708L99.4408 13.6327C98.9527 13.8322 98.9114 14.0524 98.0349 14.0352C97.478 13.9389 97.7461 13.7256 97.5261 13.7118C97.5261 13.6774 97.4539 13.6602 97.1892 13.705C96.7595 13.705 96.3264 13.6912 95.8933 13.6981L96.4226 14.0765C95.8589 14.2898 95.2126 14.104 95.8211 14.5271C95.3742 14.1934 94.1711 14.1831 93.016 14.2622C91.861 14.3345 90.7576 14.4962 90.4791 14.4067C89.7126 14.7714 88.9323 14.8402 87.9629 14.9158C88.2138 14.9709 88.4029 15.3974 87.5676 15.4387C87.7635 14.4858 85.9966 15.222 85.2369 14.6613C85.8969 15.0087 82.8856 15.1016 83.9169 15.5866C83.2156 15.6142 83.8241 15.2495 83.2672 15.1119C81.6722 15.7105 79.5993 15.4594 77.5884 15.9582C77.5781 16.082 77.9528 16.2024 77.5506 16.4604L76.3681 16.0717C75.9796 16.2093 76.1343 16.8285 75.3265 16.5636C75.4502 16.6427 75.6324 16.7597 75.3746 16.8526C73.343 16.9661 71.3527 17.5234 69.3555 18.0566C67.3583 18.5898 65.3542 19.092 63.2298 19.1023C63.8279 19.1814 63.4773 19.3018 63.0682 19.4222C63.3501 19.405 63.1404 19.7112 63.2367 19.8557L61.4629 19.8832C61.2876 20.4026 59.7029 20.4302 59.6582 20.9014L60.1566 20.671C59.6135 21.3693 61.4457 21.4794 61.5282 22.1433C62.1367 21.3555 63.7832 22.3978 64.8248 21.2523C65.1376 21.3074 64.6426 21.5206 64.8317 21.6273C65.0792 21.2695 65.4504 21.1078 66.2033 21.0425L66.138 21.1319C68.142 20.5437 69.0805 20.5987 71.3974 20.2513L71.1568 19.9726C71.6586 19.9038 71.7824 19.9795 72.0299 20.007C72.4836 19.3982 70.6446 20.2926 71.0364 19.6458C71.834 20.1343 74.5118 18.8822 75.1065 19.5358C75.8627 19.3844 74.8074 19.2124 75.5671 19.061L75.8077 19.2193L75.9487 18.9234C76.454 18.8684 76.7565 19.0679 76.8081 19.233C76.6843 19.2365 76.4746 19.3466 76.3474 19.3878C77.0349 19.4945 78.1487 18.9544 78.3859 18.9922L77.6331 19.006C79.6715 18.4212 82.2462 18.2526 84.2022 17.5543L84.0269 17.4236C85.5291 16.9214 85.285 17.4133 86.9625 17.0658L86.9041 17.1106C87.2238 16.9179 87.6707 16.7838 88.1382 16.7494C87.7291 16.9764 88.9838 17.0074 88.4441 17.2688C90.0838 16.7803 89.2451 16.942 90.3004 16.2609L90.5788 16.4914C90.9363 16.2265 90.957 16.1061 91.806 15.965C91.1254 16.2437 92.3801 16.3056 91.6204 16.6599C93.4354 17.0727 94.2329 15.9134 95.0923 16.6874C95.8795 15.941 93.5317 16.3744 93.982 16.2024C93.5832 15.996 94.6317 15.6314 95.1989 15.683C95.7764 15.6761 96.2095 16.5395 97.6327 16.4982C97.4917 16.4982 97.4814 16.5533 97.3405 16.5533C97.8767 16.7184 98.3855 16.2987 99.042 16.5842C99.4099 16.1611 99.8911 16.6186 100.005 16.0751C99.5646 16.113 99.128 16.1439 98.6914 16.1921C99.4305 16.051 100.149 15.4112 101.373 15.7655C101.273 15.8722 100.902 16.0063 100.651 16.0786C101.005 16.2506 101.345 15.9926 101.71 16.1714C101.582 16.7115 100.115 16.2368 99.3136 16.653C99.6917 16.887 100.819 16.2781 100.41 16.8629C101.001 16.1302 101.799 16.9936 102.786 16.481L102.703 16.8044C102.858 16.7597 103.181 16.6221 103.459 16.6565L102.926 17.0452C103.724 16.739 104.387 17.4649 105.13 17.3479C103.593 17.2069 104.824 16.9179 104.188 16.6255C106.151 16.3778 105.209 17.5612 107.32 17.6919C107.034 17.6885 106.281 17.3479 106.746 17.255C107.141 17.3754 107.646 17.5887 107.863 17.7917C109.248 17.9671 107.708 17.4167 108.33 17.3273C108.729 17.8089 109.038 17.286 109.678 17.2929L109.612 17.6197C111.125 18.1735 110.187 17.0246 111.534 17.63L110.829 17.9224L111.586 17.9946L111.338 18.3214C111.768 18.2802 112.032 18.3214 112.287 18.3868C112.541 18.459 112.778 18.5691 113.133 18.7514C113.033 18.4728 113.421 18.2114 114.098 18.4384C114.477 18.7996 113.738 18.6379 114.679 18.9544C114.391 19.0679 114.081 19.2158 113.782 18.7824C113.703 18.8684 113.504 18.9062 113.425 18.9922C113.631 19.178 113.92 19.3018 114.198 19.3982C114.477 19.4945 114.758 19.5461 114.917 19.6218C114.8 19.553 114.655 19.4773 114.597 19.405C115.092 19.4394 115.58 19.4979 116.078 19.5598C116.223 19.7731 116.02 19.7834 115.824 19.7938C116.092 19.8901 116.336 19.8454 116.728 20.0105C116.505 20.1997 116.395 20.4577 115.824 20.3063C116.257 20.4164 116.697 20.5196 117.12 20.6641C117.141 20.812 117.533 21.2764 117.337 21.2764C117.584 21.5447 118.031 21.6514 118.468 21.8337C118.688 21.9231 118.918 22.016 119.131 22.1398C119.334 22.2706 119.519 22.4288 119.66 22.618C119.729 22.6146 119.846 22.6318 120.014 22.7453C120.307 23.079 120.544 23.4333 120.784 23.791C121.049 24.135 121.31 24.4894 121.778 24.7921C121.754 25.0501 121.723 25.3012 121.692 25.5489C121.953 25.8482 121.977 25.6108 122.043 25.4147C122.104 25.2221 122.225 25.0604 122.658 25.6108C123.266 26.402 122.469 26.1268 122.514 26.4846C122.73 26.6359 123.005 26.8492 123.256 27.1519C123.318 27.2276 123.376 27.3067 123.431 27.3927C123.476 27.4822 123.507 27.575 123.538 27.6748C123.593 27.8743 123.614 28.091 123.583 28.3181C123.394 28.067 123.4 27.8365 123.29 27.5957ZM121.85 37.1176C121.902 36.9043 121.909 36.4434 122.156 36.4124C122.369 36.8011 122.122 36.8734 121.85 37.1176ZM110.451 49.5429C110.513 49.3571 110.747 49.2436 111.049 49.1714C110.902 49.3158 110.706 49.45 110.451 49.5429ZM70.9643 77.455C70.9677 77.4447 70.9711 77.4378 70.9746 77.4275C71.4558 77.2693 71.2805 77.3209 70.9643 77.455ZM70.0361 77.8988C69.9777 77.9951 70.0086 78.0295 70.0705 78.0433C70.0842 77.9332 70.2699 77.8025 70.5002 77.6786C70.3902 77.6442 70.2493 77.6683 70.0361 77.8988ZM97.3989 13.8426L97.6017 13.9251C97.148 14.0318 97.2752 13.9423 97.3989 13.8426Z" fill="white"/>
<path d="M111.72 47.9914C111.802 47.9983 111.854 48.0362 111.905 48.074C111.936 47.9742 111.895 47.9226 111.72 47.9914Z" fill="white"/>
<path d="M119.671 22.6352C119.664 22.6249 119.657 22.6214 119.65 22.6111C119.623 22.6146 119.606 22.6249 119.588 22.6352H119.671Z" fill="white"/>
<path d="M81.9817 67.0766C82.1879 67.0078 82.3186 66.9974 82.4183 67.0112C82.3873 66.9355 82.2704 66.9252 81.9817 67.0766Z" fill="white"/>
<path d="M65.9215 81.4076L66.3993 80.9604C66.1518 81.153 66.0212 81.1634 65.8596 81.2115C65.9181 81.2666 66.0831 81.2838 65.9215 81.4076Z" fill="white"/>
<path d="M60.1672 83.1551C60.119 83.248 60.0125 83.2858 59.9644 83.3787L60.0812 83.4819C60.3906 83.2205 60.535 82.9418 60.1672 83.1551Z" fill="white"/>
<path d="M64.7906 80.8606C64.5843 80.6646 64.3093 80.981 63.9656 81.2906C63.9862 81.2734 64.0068 81.2562 64.0309 81.2425C64.1546 81.6381 64.4743 81.2494 64.7906 80.8606Z" fill="white"/>
<path d="M63.8864 81.3594C63.7799 81.4558 63.6699 81.5452 63.553 81.6174C63.6045 81.7757 63.7111 81.5418 63.8864 81.3594Z" fill="white"/>
<path d="M69.0669 78.7691C68.8469 78.831 69.1529 79.1406 68.9878 79.1166C68.9878 79.5466 69.94 77.9504 69.0669 78.7691Z" fill="white"/>
<path d="M63.9519 80.3309L64.2888 80.5166L64.3335 80.1417L63.9519 80.3309Z" fill="white"/>
<path d="M67.0663 78.4458L66.4097 78.7863C66.451 78.8276 66.396 78.9102 66.3169 78.9962C66.6916 78.7485 67.135 78.5214 67.0663 78.4458Z" fill="white"/>
<path d="M66.3134 78.9962C66.1174 79.1269 65.9352 79.261 65.8596 79.3814C65.9627 79.3058 66.1828 79.1406 66.3134 78.9962Z" fill="white"/>
<path d="M64.708 79.6601L64.928 79.5947L65.3646 79.3126L64.708 79.6601Z" fill="white"/>
<path d="M73.6973 74.163L74.3195 73.6504C74.3263 73.5059 74.1029 73.5644 73.876 73.7639C73.7592 73.9359 73.5323 74.1354 73.6973 74.163Z" fill="white"/>
<path d="M71.1431 74.6824C71.3631 74.6239 71.4181 74.6824 71.5831 74.7099L71.3734 74.3384L71.1431 74.6824Z" fill="white"/>
<path d="M73.0648 73.3305C73.0682 73.186 73.8692 72.4154 73.0201 72.9865C73.0167 73.1275 72.3876 73.6435 73.0648 73.3305Z" fill="white"/>
<path d="M83.6489 67.4343L83.4771 67.5444L83.8655 68.1292L83.6489 67.4343Z" fill="white"/>
<path d="M91.8852 60.4752C90.988 60.8261 91.9196 60.9637 91.0774 61.232C90.9743 61.49 91.7649 61.0118 91.6446 61.2526C92.0434 60.802 92.3527 60.7298 91.8852 60.4752Z" fill="white"/>
<path d="M91.6481 61.2526C91.5828 61.3249 91.5174 61.404 91.4556 61.4969C91.5724 61.373 91.6206 61.3008 91.6481 61.2526Z" fill="white"/>
<path d="M60.2495 19.866L59.6135 19.9038L60.0673 20.0139L60.2495 19.866Z" fill="white"/>
<path d="M59.2629 20.7088L58.9914 20.327L58.7507 20.8258C58.8848 20.7604 59.1289 20.6434 59.2629 20.7088Z" fill="white"/>
<path d="M120.228 37.9088L120.29 38.0051C120.431 38.0017 120.534 37.9054 120.685 37.699C120.541 37.7746 120.382 37.84 120.228 37.9088Z" fill="white"/>
<path d="M123.39 31.5482L123.359 31.6618C123.504 31.6067 123.658 31.5482 123.793 31.4898L123.39 31.5482Z" fill="white"/>
<path d="M121.771 26.347C121.861 26.5602 122.098 26.7598 122.156 26.9765C122.039 26.7666 122.019 26.5396 122.012 26.3951C122.002 26.2506 121.977 26.1956 121.771 26.347Z" fill="white"/>
<path d="M111.812 124.333C113.593 122.55 113.593 119.66 111.812 117.877C110.031 116.095 107.142 116.095 105.361 117.877C103.58 119.66 103.58 122.55 105.361 124.333C107.142 126.116 110.031 126.116 111.812 124.333Z" fill="#FF4C4C"/>
<path d="M54.9179 30.1757C58.2004 30.1757 60.8614 27.5128 60.8614 24.2279C60.8614 20.9431 58.2004 18.2802 54.9179 18.2802C51.6354 18.2802 48.9744 20.9431 48.9744 24.2279C48.9744 27.5128 51.6354 30.1757 54.9179 30.1757Z" fill="#FF4C4C"/>
<path d="M34.1484 55.5354L33.7256 55.353C33.5296 55.2705 33.2993 55.3599 33.2168 55.5594L29.3599 64.6066C28.7033 63.898 27.5586 63.4818 26.407 63.4749C24.6092 63.468 22.7908 64.5103 22.7976 66.3129C22.8045 68.2255 24.8739 69.3229 26.7542 69.0855C28.0949 68.917 29.3221 67.8471 29.7208 66.9114C29.7277 66.8908 29.7311 66.8736 29.7414 66.853H29.7449L34.3546 56.0376C34.4371 55.8484 34.3443 55.6214 34.1484 55.5354Z" fill="white"/>
<path d="M33.3027 115.144H51.1917" stroke="white" stroke-miterlimit="10" stroke-linecap="round" stroke-linejoin="round"/>
<path d="M18.5764 76.8049H34.6538" stroke="white" stroke-miterlimit="10" stroke-linecap="round" stroke-linejoin="round"/>
<path d="M54.863 25.6555H73.9723" stroke="white" stroke-miterlimit="10" stroke-linecap="round" stroke-linejoin="round"/>
<path d="M36.644 76.8049H42.1269" stroke="white" stroke-miterlimit="10" stroke-linecap="round" stroke-linejoin="round"/>
<path d="M34.3685 43.0138L31.3365 40.3065L28.3012 43.0138L24.7537 39.8524L25.7746 38.7069L28.3012 40.9566L31.3365 38.2494L34.3685 40.9566L37.4038 38.2494L40.4391 40.9566L43.4779 38.2494L47.022 41.4107L46.0011 42.5597L43.4779 40.3065L40.4391 43.0138L37.4038 40.3065L34.3685 43.0138Z" fill="white"/>
<path d="M24.568 125.292L19.8276 121.064L15.0873 125.292L9.31909 120.149L11.3782 117.837L15.0873 121.146L19.8276 116.919L24.568 121.146L29.3084 116.919L34.0487 121.146L38.7891 116.919L44.5607 122.062L42.5016 124.377L38.7891 121.064L34.0487 125.292L29.3084 121.064L24.568 125.292Z" fill="#FF4C4C"/>
<path d="M38.4592 85.7317C38.4592 85.7317 47.1906 69.2541 57.2522 58.8446L59.2151 60.6885C59.2151 60.6885 47.9365 73.9084 42.9727 84.7134L38.4592 85.7317Z" fill="white"/>
<path d="M47.5962 132.781L55.3341 116.09L67.3414 121.466L58.1013 137.308L47.5962 132.781Z" fill="#E2A687"/>
<path d="M47.5961 132.781L41.9998 144.876C41.9998 144.876 40.006 149.757 53.2955 145.546L58.1012 137.304C56.3343 134.683 50.1502 132.457 47.5961 132.781Z" fill="#FF4C4C"/>
<path d="M39.2051 152.801H62.1885C62.1885 152.801 64.0688 146.172 54.124 145.825C54.124 145.825 54.3199 145.285 53.9315 144.858C53.9315 144.858 53.2852 144.236 51.4908 143.654C50.2705 143.262 49.3974 143.173 48.7408 143.469C47.5102 144.026 45.7261 145.801 44.2205 146.052C42.7148 146.307 41.9551 145.409 41.9998 144.872C41.797 144.889 41.1507 145.144 40.6901 145.66C39.0985 147.432 39.2051 152.801 39.2051 152.801Z" fill="white"/>
<path d="M39.1363 152.801H62.326C62.5872 152.633 62.6216 151.563 62.326 151.456H39.2291C39.0229 151.484 38.8441 152.131 39.1363 152.801Z" fill="#140000"/>
<path d="M39.6486 148.068C39.6486 148.068 41.2917 148.742 41.3949 151.46H39.2292C39.2292 151.456 39.0848 149.454 39.6486 148.068Z" fill="#181820"/>
<path d="M47.5962 133.885C47.5962 133.885 53.7288 134.597 56.8432 137.978" stroke="white" stroke-miterlimit="10" stroke-linecap="round"/>
<path d="M100.438 135.825L90.1736 117.517L103.872 113.317L110.517 130.41L108.351 136.049L100.438 135.825Z" fill="#E2A687"/>
<path d="M99.8916 134.851L106.419 147.738C106.419 147.738 111.624 158.395 116.601 145.361L110.197 129.588C108.781 132.777 100.861 134.972 99.8916 134.851Z" fill="#FF4C4C"/>
<path d="M102.356 152.801H125.47C125.47 152.801 127.619 146.183 117.674 145.835C117.674 145.835 117.361 144.243 116.832 144.009C115.677 143.496 112.146 143.74 111.493 144.036C110.262 144.594 109.963 145.952 107.371 146.059C105.845 146.121 105.433 145.56 104.975 144.862C104.773 144.879 104.305 145.151 103.841 145.667C102.253 147.432 102.356 152.801 102.356 152.801Z" fill="white"/>
<path d="M102.288 152.801H125.611C125.872 152.633 125.907 151.563 125.611 151.456H102.384C102.174 151.484 101.995 152.131 102.288 152.801Z" fill="#140000"/>
<path d="M102.803 148.068C102.803 148.068 104.446 148.742 104.549 151.46H102.384C102.384 151.456 102.236 149.454 102.803 148.068Z" fill="#181820"/>
<path d="M101.253 136.049C101.253 136.049 107.31 135.336 110.338 131.724" stroke="white" stroke-miterlimit="10" stroke-linecap="round"/>
<path d="M93.5696 64.7511L97.7669 74.5001L89.7059 76.8358L85.323 67.6751L93.5696 64.7511Z" fill="#E2A687"/>
<path d="M104.742 114.442C100.83 117.428 92.0366 120.173 86.5091 121.621C86.2959 120.82 84.6734 114.896 83.8965 111.858C83.7659 111.349 83.5047 110.885 83.13 110.517C82.5937 109.984 83.0578 108.752 82.8378 108.494C76.1414 104.063 71.0092 98.9826 70.4317 98.501C72.3773 104.693 74.2783 111.281 74.1339 113.74C74.0446 115.233 72.1161 119.801 69.5276 125.333C66.0317 124.583 58.39 120.964 53.6325 118.394C54.7222 115.567 55.9425 113.032 55.9666 112.66C56.0044 112.027 55.1484 111.625 55.1519 110.992C55.1312 110.307 56.3825 109.887 56.8294 109.368C54.8837 105.154 52.56 99.7222 52.0099 98.4769C49.7618 93.3616 50.7037 86.4506 54.1 80.1623C58.7578 80.8331 68.7473 82.1438 75.8561 83.0072C80.1702 86.7981 89.9982 94.3386 97.1104 101.136C98.6229 102.584 103.281 110.964 104.742 114.442Z" fill="white"/>
<path d="M87.0867 119.512C87.0867 119.512 87.3273 119.457 87.7536 119.354" stroke="white" stroke-miterlimit="10" stroke-linecap="round"/>
<path d="M89.1389 119C92.133 118.198 97.7774 116.489 101.786 114.081" stroke="white" stroke-miterlimit="10" stroke-linecap="round" stroke-dasharray="4.17 4.17"/>
<path d="M102.394 113.702C102.59 113.575 102.779 113.448 102.965 113.317" stroke="white" stroke-miterlimit="10" stroke-linecap="round"/>
<path d="M54.8804 117.063C54.8804 117.063 62.4601 121.294 69.7787 123.138" stroke="white" stroke-miterlimit="10" stroke-linecap="round" stroke-dasharray="4 4"/>
<path d="M65.6432 94.8511C65.6432 94.8511 57.9535 95.9278 53.8662 102.746C52.9862 100.734 52.2781 99.0926 52.0065 98.4769C49.7584 93.3616 50.7003 86.4506 54.0966 80.1623C56.5166 80.5098 60.3735 81.0326 64.5157 81.5727C63.3298 83.8706 62.5323 85.7317 62.5323 85.7317L65.6432 94.8511Z" fill="white"/>
<path d="M75.5503 103.038C72.6868 100.658 70.7824 98.7934 70.4352 98.5044C70.4318 98.501 70.4318 98.501 70.4318 98.501C70.4318 98.501 69.7237 95.6664 69.294 93.7916C68.933 92.2195 71.9271 91.074 72.6868 94.6C73.1062 96.5402 72.209 99.3713 75.3509 102.746C75.4334 102.835 75.485 102.942 75.5503 103.038Z" fill="white"/>
<path d="M89.156 54.8164C88.8466 54.0974 85.11 52.4531 81.0881 50.5852C79.5618 49.8834 77.2415 49.2986 74.1993 48.965C71.3358 48.6519 66.5267 47.9674 62.7351 47.816C62.7213 47.816 59.8751 48.105 49.0571 54.407C49.6724 58.2667 51.4428 62.1333 53.7872 65.0366C54.8494 64.5344 57.1078 63.038 57.1078 63.038C51.8725 72.5634 50.7346 78.8654 49.8134 86.7706C49.6174 88.4527 60.346 88.8139 65.7189 85.0746C70.748 81.5762 75.1171 82.9178 77.1074 83.9979C77.5302 83.279 77.5818 83.4097 77.9324 73.7295C78.0218 71.2871 81.6243 68.5626 83.1747 66.6122C83.8037 67.596 84.4294 68.5523 84.6769 68.8826C87.9013 69.4708 92.6141 67.0009 94.0476 65.4976C92.4113 60.5578 89.156 54.8164 89.156 54.8164Z" fill="#FF4C4C"/>
<path d="M86.6018 68.917C85.928 68.9961 85.2783 68.9926 84.6768 68.8826C84.4258 68.5489 83.8036 67.596 83.1746 66.6122C83.1746 66.6122 84.3364 65.3153 85.2783 63.5643C86.5124 61.2802 85.3471 67.4618 86.6018 68.917Z" fill="white"/>
<path d="M57.5032 62.6665C57.5032 62.6665 60.487 60.8226 62.5048 59.856" stroke="#0F0E13" stroke-width="0.5" stroke-miterlimit="10" stroke-linecap="round" stroke-linejoin="round"/>
<path d="M118.42 67.7026L31.7147 87.2522C30.7728 87.4654 30.185 88.3977 30.3947 89.3402L32.8663 100.321C33.0794 101.263 34.011 101.852 34.9529 101.642L104.587 85.9415C105.529 85.7282 106.117 84.796 105.907 83.8534L104.463 77.4413L118.128 74.359C119.069 74.1458 119.657 73.2135 119.448 72.271L118.42 67.7026Z" fill="#FF4C4C"/>
<path d="M102.079 74.6053L39.1475 88.7953L41.5184 99.3255L104.45 85.1356L102.079 74.6053Z" fill="white"/>
<path d="M42.618 88.0125L40.9146 88.3966L42.3879 94.9403L44.0914 94.5562L42.618 88.0125Z" fill="#181820"/>
<path d="M45.2406 87.4207L43.5371 87.8048L45.0105 94.3485L46.714 93.9644L45.2406 87.4207Z" fill="#181820"/>
<path d="M60.9735 83.8747L59.27 84.2588L60.7434 90.8024L62.4469 90.4183L60.9735 83.8747Z" fill="#181820"/>
<path d="M63.5961 83.2829L61.8926 83.667L63.3659 90.2107L65.0694 89.8266L63.5961 83.2829Z" fill="#181820"/>
<path d="M79.3292 79.7365L77.6257 80.1207L79.0991 86.6643L80.8026 86.2802L79.3292 79.7365Z" fill="#181820"/>
<path d="M81.952 79.1444L80.2485 79.5285L81.7219 86.0722L83.4254 85.6881L81.952 79.1444Z" fill="#181820"/>
<path d="M97.6862 75.5958L95.9827 75.9799L97.456 82.5235L99.1595 82.1394L97.6862 75.5958Z" fill="#181820"/>
<path d="M100.309 75.004L98.6055 75.3881L100.079 81.9317L101.782 81.5476L100.309 75.004Z" fill="#181820"/>
<path d="M50.4855 86.2376L48.782 86.6217L50.2553 93.1653L51.9588 92.7812L50.4855 86.2376Z" fill="#181820"/>
<path d="M53.1083 85.6458L51.4048 86.0299L52.8781 92.5735L54.5816 92.1894L53.1083 85.6458Z" fill="#181820"/>
<path d="M55.7318 85.0571L54.0283 85.4412L55.5017 91.9848L57.2052 91.6007L55.7318 85.0571Z" fill="#181820"/>
<path d="M68.8417 82.0991L67.1382 82.4832L68.6115 89.0268L70.315 88.6427L68.8417 82.0991Z" fill="#181820"/>
<path d="M71.4642 81.5073L69.7607 81.8914L71.2341 88.4351L72.9376 88.051L71.4642 81.5073Z" fill="#181820"/>
<path d="M74.0841 80.9197L72.3806 81.3038L73.854 87.8475L75.5575 87.4634L74.0841 80.9197Z" fill="#181820"/>
<path d="M87.1974 77.9609L85.4939 78.345L86.9673 84.8886L88.6707 84.5045L87.1974 77.9609Z" fill="#181820"/>
<path d="M89.8163 77.3704L88.1128 77.7545L89.5862 84.2982L91.2896 83.9141L89.8163 77.3704Z" fill="#181820"/>
<path d="M92.4388 76.7786L90.7354 77.1627L92.2087 83.7064L93.9122 83.3223L92.4388 76.7786Z" fill="#181820"/>
<path d="M42.9727 93.5508L44.1414 98.7383" stroke="#181820" stroke-miterlimit="10"/>
<path d="M45.5955 92.9591L46.7642 98.1466" stroke="#181820" stroke-miterlimit="10"/>
<path d="M47.0151 87.0251L49.3836 97.555" stroke="#181820" stroke-miterlimit="10"/>
<path d="M50.8376 91.7758L52.0064 96.9633" stroke="#181820" stroke-miterlimit="10"/>
<path d="M53.4607 91.1841L54.6295 96.375" stroke="#181820" stroke-miterlimit="10"/>
<path d="M54.8804 85.2501L57.2523 95.7834" stroke="#181820" stroke-miterlimit="10"/>
<path d="M57.5032 84.6618L59.8751 95.1917" stroke="#181820" stroke-miterlimit="10"/>
<path d="M61.3291 89.4125L62.4979 94.6" stroke="#181820" stroke-miterlimit="10"/>
<path d="M63.9519 88.8208L65.1172 94.0083" stroke="#181820" stroke-miterlimit="10"/>
<path d="M65.3716 82.8868L67.74 93.4167" stroke="#181820" stroke-miterlimit="10"/>
<path d="M69.1941 87.6374L70.3629 92.825" stroke="#181820" stroke-miterlimit="10"/>
<path d="M71.8171 87.0458L72.9859 92.2333" stroke="#181820" stroke-miterlimit="10"/>
<path d="M74.4399 86.4541L75.6087 91.645" stroke="#181820" stroke-miterlimit="10"/>
<path d="M75.8596 80.5235L78.2315 91.0534" stroke="#181820" stroke-miterlimit="10"/>
<path d="M79.6855 85.2742L80.8509 90.4617" stroke="#181820" stroke-miterlimit="10"/>
<path d="M82.3049 84.6825L83.4737 89.87" stroke="#181820" stroke-miterlimit="10"/>
<path d="M83.7246 78.7485L86.0965 89.2783" stroke="#181820" stroke-miterlimit="10"/>
<path d="M87.5505 83.4991L88.7193 88.6867" stroke="#181820" stroke-miterlimit="10"/>
<path d="M90.1736 82.9074L91.3423 88.095" stroke="#181820" stroke-miterlimit="10"/>
<path d="M92.7964 82.3158L93.9651 87.5067" stroke="#181820" stroke-miterlimit="10"/>
<path d="M94.2161 76.3818L96.5845 86.9151" stroke="#181820" stroke-miterlimit="10"/>
<path d="M98.0386 81.1324L99.2073 86.3234" stroke="#181820" stroke-miterlimit="10"/>
<path d="M100.661 80.5442L101.83 85.7317" stroke="#181820" stroke-miterlimit="10"/>
<path d="M37.5826 90.6543C37.7614 91.4455 37.263 92.2298 36.4758 92.4087C35.6851 92.5876 34.9014 92.0888 34.7226 91.301C34.5439 90.5098 35.0423 89.7255 35.8295 89.5466C36.6201 89.3678 37.4039 89.8666 37.5826 90.6543Z" fill="#181820"/>
<path d="M38.7858 95.9966C38.9645 96.7878 38.4661 97.5722 37.6789 97.751C36.8882 97.9299 36.1045 97.4311 35.9257 96.6434C35.747 95.8522 36.2454 95.0678 37.0326 94.889C37.8233 94.7101 38.607 95.2089 38.7858 95.9966Z" fill="#181820"/>
<path d="M35.0354 94.1184C35.1419 94.5897 34.8463 95.061 34.3719 95.1676C33.901 95.2742 33.43 94.9784 33.3235 94.5037C33.2169 94.0324 33.5125 93.5611 33.9869 93.4545C34.4579 93.3513 34.9288 93.6471 35.0354 94.1184Z" fill="#181820"/>
<path d="M119.434 71.5038L103.855 75.0161L102.992 71.1805L118.571 67.6682C119.021 67.565 119.471 67.8506 119.571 68.3012L120.066 70.4994C120.169 70.9534 119.887 71.4006 119.434 71.5038Z" fill="white"/>
<path d="M106.45 72.4154C106.55 72.8558 106.271 73.2961 105.831 73.3958C105.391 73.4956 104.951 73.217 104.852 72.7766C104.752 72.3363 105.031 71.896 105.471 71.7962C105.914 71.6965 106.351 71.9751 106.45 72.4154Z" fill="#C85342"/>
<path d="M110.204 71.5692C110.304 72.0095 110.025 72.4498 109.585 72.5496C109.145 72.6494 108.705 72.3707 108.605 71.9304C108.506 71.4901 108.784 71.0498 109.224 70.95C109.668 70.8502 110.104 71.1289 110.204 71.5692Z" fill="#FF4C4C"/>
<path d="M113.958 70.723C114.057 71.1633 113.779 71.6036 113.339 71.7034C112.899 71.8031 112.459 71.5245 112.359 71.0842C112.26 70.6438 112.538 70.2035 112.978 70.1038C113.422 70.004 113.862 70.2826 113.958 70.723Z" fill="#FF4C4C"/>
<path d="M85.543 52.4118C85.543 52.4118 91.8406 59.7012 98.0384 72.2985L94.6181 73.069C94.6181 73.069 87.8736 58.1085 82.5352 51.4314C82.5352 51.4314 84.5805 51.6791 85.543 52.4118Z" fill="#FF4C4C"/>
<path d="M60.4147 87.2762C59.8716 86.3474 59.4522 85.9656 59.2116 85.8211C59.0363 85.711 58.1803 85.0471 57.8538 84.9198C57.1663 84.6412 55.7122 82.6976 55.3409 82.2951L54.3234 81.473L48.3421 65.2121L52.4809 63.2272C50.8378 60.6885 49.6174 57.675 49.0984 54.6478C46.6027 56.1649 40.7211 59.8319 39.377 61.4969C37.7373 63.523 48.648 81.442 49.6759 83.2033C49.3115 84.7547 49.229 88.5387 49.0949 88.8965C49.0331 89.0616 48.8268 89.4572 48.5621 89.956C48.3352 90.3826 48.4109 90.9089 48.7512 91.2494L50.3049 92.8146C50.4115 93.5474 50.4356 94.0186 50.4837 94.2835C50.5731 94.5794 51.2228 95.1676 52.01 94.1425C52.4156 93.6162 52.4672 92.106 52.5015 91.8136C53.0378 92.677 53.7219 93.6299 53.959 93.9189C54.3819 94.4349 55.3719 93.7297 55.0831 92.278C54.9766 91.7448 53.9625 90.2622 53.9625 90.2622L54.3647 90.0076C54.8012 90.6646 55.0075 91.0018 55.1312 91.1256C55.6159 91.6175 57.3966 92.4431 58.0119 92.7768C58.7578 93.1827 59.301 92.2436 58.696 91.5418C58.0875 90.8298 57.2694 90.1968 56.8259 89.8012C56.5131 89.3058 56.245 88.5146 56.1041 87.9918C56.0628 87.8335 56.0869 87.3691 56.1419 87.1352C56.7985 87.3588 57.4963 87.4689 57.8297 87.4758C57.8297 87.4758 58.7372 88.1741 59.4488 88.4734C60.15 88.7726 60.9819 88.2498 60.4147 87.2762Z" fill="#E2A687"/>
<path d="M50.2739 92.3812C50.2739 92.3812 49.9267 89.7565 49.9645 89.4641C49.9989 89.1682 50.6108 88.7038 51.0096 88.2635" stroke="#0F0E13" stroke-width="0.5" stroke-miterlimit="10" stroke-linecap="round" stroke-linejoin="round"/>
<path d="M52.8451 88.2463C52.8451 88.2463 51.831 88.9618 51.4873 89.471C51.2363 89.8425 52.0063 90.9364 52.3879 91.5934" stroke="#0F0E13" stroke-width="0.5" stroke-miterlimit="10" stroke-linecap="round" stroke-linejoin="round"/>
<path d="M54.3233 89.8459L53.5876 88.291" stroke="#0F0E13" stroke-width="0.5" stroke-miterlimit="10" stroke-linecap="round" stroke-linejoin="round"/>
<path d="M110.087 82.0096C109.369 83.0829 107.708 83.6814 106.777 83.7262C105.636 83.7778 103.006 83.1482 102.597 81.8754C102.483 81.5177 102.937 80.324 102.937 80.324C102.937 80.324 101.122 79.5225 101.026 79.2438C100.892 78.8551 100.015 76.9906 100.008 76.8427C99.9911 76.2751 100.857 75.4805 101.772 76.5572C102.078 76.9184 102.308 77.4619 102.494 77.9951C102.896 78.1121 103.869 78.4492 103.869 78.4492C103.869 78.4492 102.494 76.9494 102.274 76.5606C102.054 76.1719 102.105 73.9153 102.112 73.4543C102.126 72.6459 103.37 72.3363 103.831 73.499L104.199 75.563L105.605 77.1661L105.127 76.227C105.127 76.227 104.687 74.6549 104.257 73.6917C103.755 72.5565 105.041 72.0818 105.581 72.5634C106.464 73.3477 106.708 74.4038 106.856 74.7065C107.361 75.7694 107.502 76.1994 107.502 76.1994L108.475 76.5331L109.661 76.2648C109.826 76.6432 110.032 77.1592 110.256 77.8162C110.541 78.6659 110.806 80.9329 110.087 82.0096Z" fill="#E2A687"/>
<path d="M103.934 78.5146L105.151 79.7082" stroke="#0F0E13" stroke-width="0.5" stroke-miterlimit="10" stroke-linecap="round" stroke-linejoin="round"/>
<path d="M103.026 80.4134L103.796 81.2253" stroke="#0F0E13" stroke-width="0.5" stroke-miterlimit="10" stroke-linecap="round" stroke-linejoin="round"/>
<path d="M105.656 77.2693L106.409 78.635" stroke="#0F0E13" stroke-width="0.5" stroke-miterlimit="10" stroke-linecap="round" stroke-linejoin="round"/>
<path d="M89.5582 40.6436C89.5582 40.6436 89.6922 43.1032 87.53 44.1455L87.9219 40.3237L89.5582 40.6436Z" fill="black"/>
<path d="M80.9918 36.6876C80.7821 36.7495 80.5827 36.8149 80.3799 36.9009C79.3693 37.2758 78.4583 37.8641 77.7914 38.6622C76.6536 40.0278 76.6021 41.9198 76.9183 43.6295C76.8152 44.5618 76.7464 45.6591 76.5608 46.8012C75.698 47.7575 74.1992 48.9684 74.1992 48.9684C74.1992 48.9684 76.9321 55.1088 80.6618 53.265L81.3768 51.0771C81.4559 51.1287 81.5384 51.1769 81.6174 51.225C81.9577 51.4383 82.2843 51.5897 82.5971 51.7066C84.0546 52.2433 85.0825 51.9062 85.0825 51.9062C87.3753 51.0909 87.9253 46.8287 88.3069 44.1834C88.465 43.1135 88.5406 42.1675 88.5819 41.5002C88.6162 40.8947 88.6128 40.5301 88.6128 40.5301C88.6128 40.5026 88.6162 40.4854 88.6197 40.4578C88.9153 36.9869 84.5359 35.6625 80.9918 36.6876Z" fill="#E2A687"/>
<path d="M92.4663 36.0822C90.2284 35.9996 89.2075 35.3735 89.2075 35.3735C91.0672 35.1774 91.7203 33.3474 90.4038 33.657C89.0872 33.9666 86.3269 33.2614 86.3269 33.2614C88.1728 33.4815 88.8466 32.2087 88.63 31.9438C88.4134 31.679 87.8359 32.1846 86.6293 31.8991C85.4228 31.6136 82.769 31.3246 81.4937 32.0298C79.6718 33.0412 79.8265 34.369 79.8265 34.369C77.9083 34.3243 74.7286 35.0639 74.3952 38.5177C73.8898 43.6914 76.5608 46.7943 76.5608 46.7943C76.6708 46.1923 76.7671 45.2704 76.9011 44.3519C77.0146 43.571 76.8083 42.5941 77.0008 42.0265C77.1933 41.4589 77.7846 41.3041 78.1146 41.3522C79.1665 41.5036 79.3418 43.055 79.3418 43.055C79.4036 43.4575 79.4621 43.7671 79.524 44.0045L80.2115 43.8428C80.3146 43.4403 80.4143 42.9037 80.5071 42.3154C80.954 42.195 81.7618 41.9405 82.1021 41.624C82.4974 41.2559 82.7106 40.6402 82.824 40.0691C84.2093 41.1699 87.9391 42.4358 90.3522 40.7674L90.3556 40.7709C93.8654 39.8386 93.8963 36.1372 92.4663 36.0822Z" fill="white"/>
<path d="M81.3769 51.0771C81.3769 51.0771 78.6475 49.3571 77.7813 46.526C77.7813 46.526 77.7641 50.7434 80.9163 52.491L81.3769 51.0771Z" fill="black"/>
<path d="M77.7812 42.1228C77.7812 42.1228 78.2556 42.1194 78.4034 42.4358C78.6406 42.945 77.7812 43.258 77.7812 43.258C77.7812 43.258 78.3519 43.3062 78.5203 43.7258C78.7438 44.2866 77.8706 44.6478 77.8706 44.6478" stroke="#0F0E13" stroke-width="0.5" stroke-miterlimit="10" stroke-linecap="round" stroke-linejoin="round"/>
</svg>
