<svg width="30" height="30" viewBox="0 0 30 30" fill="none" xmlns="http://www.w3.org/2000/svg">
<circle cx="15" cy="15" r="14.5" fill="#140000" stroke="#FF4C4C"/>
<g clip-path="url(#clip0_13_4381)">
<path d="M18.4658 14.4391H15.8049V11.4328C15.8049 11.1891 15.6018 10.9859 15.358 10.9859C15.1143 10.9859 14.9111 11.1891 14.9111 11.4328V14.9062C14.9111 15.15 15.1143 15.3531 15.358 15.3531H18.4658C18.7096 15.3531 18.9127 15.15 18.9127 14.9062C18.9127 14.6625 18.7299 14.4391 18.4658 14.4391Z" fill="#FF4C4C"/>
<path d="M15.5001 8.28436C12.1079 8.28436 9.36572 11.0672 9.36572 14.5C9.36572 17.9328 12.1079 20.7156 15.5001 20.7156C18.8923 20.7156 21.6345 17.9328 21.6345 14.5C21.6345 11.0672 18.8923 8.28436 15.5001 8.28436ZM15.5001 19.8015C12.6157 19.8015 10.2595 17.425 10.2595 14.5C10.2595 11.575 12.6157 9.19843 15.5001 9.19843C18.3845 9.19843 20.7407 11.575 20.7407 14.5C20.7407 17.425 18.3845 19.8015 15.5001 19.8015Z" fill="#FF4C4C"/>
</g>
<defs>
<clipPath id="clip0_13_4381">
<rect width="13" height="13" fill="white" transform="translate(9 8)"/>
</clipPath>
</defs>
</svg>
