<svg width="27" height="27" viewBox="0 0 27 27" fill="none" xmlns="http://www.w3.org/2000/svg">
<path d="M1.02475 7.07899C1.55941 7.07899 2.04951 6.62521 2.04951 6.03529V2.0874H5.92574C6.4604 2.0874 6.9505 1.63361 6.9505 1.0437C6.9505 0.453782 6.50495 0 5.92574 0H1.02475C0.490099 0 0 0.453782 0 1.0437V6.08067C0.0445545 6.62521 0.490099 7.07899 1.02475 7.07899Z" fill="#FF4C4C"/>
<path d="M25.9753 0.0453491H21.0743C20.5397 0.0453491 20.0496 0.49913 20.0496 1.08905C20.0496 1.67896 20.4951 2.13274 21.0743 2.13274H24.9506V6.12602C24.9506 6.67056 25.3961 7.16972 25.9753 7.16972C26.5545 7.16972 27.0001 6.71594 27.0001 6.12602V1.04367C27.0001 0.49913 26.51 0.0453491 25.9753 0.0453491Z" fill="#FF4C4C"/>
<path d="M25.9753 19.8756C25.4406 19.8756 24.9506 20.3294 24.9506 20.9193V24.9126H21.0743C20.5397 24.9126 20.0496 25.3664 20.0496 25.9563C20.0496 26.5462 20.4951 27 21.0743 27H25.9753C26.51 27 27.0001 26.5462 27.0001 25.9563V20.8739C27.0001 20.3294 26.51 19.8756 25.9753 19.8756Z" fill="#FF4C4C"/>
<path d="M5.92574 24.8672H2.04951V20.874C2.04951 20.3294 1.60396 19.8303 1.02475 19.8303C0.445545 19.8303 0 20.284 0 20.874V25.9109C0 26.4555 0.445545 26.9546 1.02475 26.9546H5.92574C6.4604 26.9546 6.9505 26.5008 6.9505 25.9109C6.9505 25.321 6.4604 24.8672 5.92574 24.8672Z" fill="#FF4C4C"/>
<path d="M22.3218 13.4773C22.3218 13.0236 22.1436 12.6152 21.8317 12.3429C20.6287 11.1177 17.4208 8.25885 13.5 8.25885C9.57921 8.25885 6.37129 11.1177 5.16832 12.3429C4.85644 12.6605 4.67822 13.0689 4.67822 13.4773C4.67822 13.8857 4.85644 14.3395 5.16832 14.6118C6.37129 15.837 9.57921 18.6958 13.5 18.6958C17.4208 18.6958 20.6287 15.837 21.8317 14.6118C22.1436 14.3395 22.3218 13.9311 22.3218 13.4773ZM13.5 16.6538C10.604 16.6538 7.97525 14.521 6.86139 13.4773C7.9307 12.4336 10.5594 10.3009 13.5 10.3009C16.4406 10.3009 19.0248 12.4336 20.1386 13.4773C19.0248 14.521 16.396 16.6538 13.5 16.6538Z" fill="#FF4C4C"/>
<path d="M12.7872 12.7513C12.609 12.9328 12.4753 13.205 12.4753 13.4773C12.4753 13.5227 12.4753 13.6134 12.4753 13.6588C12.4753 13.7042 12.5199 13.795 12.5199 13.8403C12.5645 13.8857 12.5645 13.9765 12.609 14.0218C12.6536 14.0672 12.6981 14.1126 12.7427 14.158C12.9209 14.3395 13.1882 14.4756 13.4555 14.4756C13.5001 14.4756 13.5892 14.4756 13.6338 14.4756C13.6783 14.4756 13.7674 14.4302 13.812 14.4302C13.8565 14.3849 13.9456 14.3849 13.9902 14.3395C14.0347 14.2941 14.0793 14.2487 14.1239 14.2034C14.1684 14.158 14.213 14.1126 14.2575 14.0672C14.3021 14.0218 14.3021 13.9311 14.3466 13.8857C14.3912 13.8403 14.3912 13.7496 14.3912 13.7042C14.3912 13.6588 14.3912 13.5681 14.3912 13.5227C14.3912 13.2504 14.3021 12.9781 14.0793 12.7966C14.0347 12.7513 13.9902 12.7059 13.9456 12.6605C13.9011 12.6151 13.9456 12.5697 13.9011 12.5244C13.8565 12.479 13.7674 12.479 13.7229 12.479C13.3664 12.3882 13.01 12.5244 12.7872 12.7513Z" fill="#FF4C4C"/>
</svg>
